<svg id="Alphabet" xmlns="http://www.w3.org/2000/svg" viewBox="0 0 678.78 721.31">
  <path d="M556.51,388.73l-.58-.58-.25.46-76.74,144-.39.73h.56l77.06-143.49.67.67ZM533.84,658.88l-.54,1-.13.26-.54,1h1.14l.53-1,.14-.26.54-1Zm-43.16,80.47L394.36,918.9l-79.36-80,.37-.69,95.46-177.74.15-.29.54-1h-1.14l-.29.55-96,178.76-.14.26-.16.31v0l.41.41,80.42,81.12.23-.43,97-180.79.54-1h-1.14Z" transform="translate(-177.75 -199.93)"/>
  <path d="M394.83,920.14l-80-80.91-.06-.06-.15-.15h-.81l-129.95.43-6.08,0,81,81.38.15.15H395.68ZM259.33,920l-79.18-79.54,134-.44,79.11,80Z" transform="translate(-177.75 -199.93)"/>
  <path d="M856,920.43l-80.09-81-.24-.25-.15-.15h-.7l-130.09.43-6.08,0,81,81.38.15.15H856.53ZM720.23,920,641,840.46,775.08,840l79,80Z" transform="translate(-177.75 -199.93)"/>
  <path d="M607,660.14h-.21l.26.25Zm14.61,78.21H490.94l-78-77.21-1-1,121.34-.26h1.14l.54-1h-1.14l-122.32.26h-2l.56.55.45.45.29.29.72.71,78.84,78.07.14.14H621.77Z" transform="translate(-177.75 -199.93)"/>
  <path d="M856.08,921l-.11-.57L737.89,281.49l0-.16-81.4-81.4.18,1,.19,1L774.68,838.45l.11.57v0l0,.15.26.26L855.88,921l.24.24ZM658,202.92h0l78.9,78.89,117.6,636.41-78.79-79.52Z" transform="translate(-177.75 -199.93)"/>
  <path d="M556.84,390.48l-.33-1.75-.23-1.24-.35.66-.25.46-76.74,144-.39.73H583.44Zm-1,0L582.23,532.3h-102ZM607,660.14h-.21l.26.25ZM556.84,390.48l-.33-1.75-.23-1.24-.35.66-.25.46-76.74,144-.39.73H583.44Zm-1,0L582.23,532.3h-102ZM411,660.14l-.15.29.72.71H532.63l.54-1ZM556.84,390.48l-.33-1.75-.23-1.24-.35.66-.25.46-76.74,144-.39.73H583.44Zm-1,0L582.23,532.3h-102ZM607,660.39l0-.25H411l-.15.29.72.71H606.14l14.43,77.21h1ZM583.44,533.3l-26.6-142.82-.33-1.75-.23-1.24-.35.66-.25.46-76.74,144-.39.73Zm-1.21-1h-102l75.6-141.82ZM775.88,839.42l-.13-.71L658,202.93h0l-.29-1.59,0-.15-.05-.26H521.54L178.14,839.45H314.68l.12-.22.2-.37.37-.69,95.51-177H606.14l14.43,77.21.18,1,18.71,100.1H775.89Zm-135.59-1-18.52-99.1-.19-1-14.56-78,0-.25H410.29L314.08,838.45H179.81L522.14,201.92H656.83L774.68,838.45ZM556.51,388.73l-.23-1.24-.35.66-.25.46-76.74,144-.39.73H583.44l-26.6-142.82ZM582.23,532.3h-102l75.6-141.82ZM411,660.14l-.15.29.72.71H532.63l.54-1ZM556.84,390.48l-.33-1.75-.23-1.24-.35.66-.25.46-76.74,144-.39.73H583.44Zm-1,0L582.23,532.3h-102ZM607,660.14h-.21l.26.25ZM556.84,390.48l-.33-1.75-.23-1.24-.35.66-.25.46-76.74,144-.39.73H583.44Zm-1,0L582.23,532.3h-102Zm1,0-.33-1.75-.23-1.24-.35.66-.25.46-76.74,144-.39.73H583.44Zm-1,0L582.23,532.3h-102ZM607,660.14h-.21l.26.25ZM556.84,390.48l-.33-1.75-.23-1.24-.35.66-.25.46-76.74,144-.39.73H583.44Zm-1,0L582.23,532.3h-102Z" transform="translate(-177.75 -199.93)"/>
</svg>
