<svg xmlns="http://www.w3.org/2000/svg" xmlns:xlink="http://www.w3.org/1999/xlink" viewBox="0 0 68.89 86.08">
  <defs>
    <style>
      .cls-1 {
        fill: none;
      }

      .cls-2 {
        isolation: isolate;
      }

      .cls-3 {
        opacity: 0.53;
        fill: url(#radial-gradient);
      }

      .cls-3, .cls-7 {
        mix-blend-mode: multiply;
      }

      .cls-4 {
        fill: #e8eaee;
      }

      .cls-5 {
        clip-path: url(#clip-path);
      }

      .cls-6 {
        fill: url(#linear-gradient);
      }

      .cls-8 {
        fill: #f40000;
      }

      .cls-9 {
        fill: #f5f5f5;
      }

      .cls-10, .cls-26 {
        opacity: 0.5;
      }

      .cls-10 {
        mix-blend-mode: screen;
        fill: url(#radial-gradient-2);
      }

      .cls-11 {
        opacity: 0.15;
      }

      .cls-12, .cls-13, .cls-14, .cls-15, .cls-16, .cls-17, .cls-18, .cls-19, .cls-20, .cls-21, .cls-22, .cls-23, .cls-24, .cls-25, .cls-26, .cls-27, .cls-28, .cls-29, .cls-30, .cls-31, .cls-32, .cls-33, .cls-34, .cls-35, .cls-36, .cls-37, .cls-38, .cls-39, .cls-40, .cls-41, .cls-42, .cls-43, .cls-44, .cls-45, .cls-46, .cls-47, .cls-48, .cls-49, .cls-50, .cls-52, .cls-53, .cls-54, .cls-55, .cls-56, .cls-57, .cls-58, .cls-59, .cls-60, .cls-61, .cls-62, .cls-63, .cls-64, .cls-65, .cls-66, .cls-67, .cls-68, .cls-69, .cls-70, .cls-71, .cls-72, .cls-73, .cls-74, .cls-75, .cls-76, .cls-77, .cls-78, .cls-79, .cls-80, .cls-81, .cls-82, .cls-83, .cls-84, .cls-85, .cls-86, .cls-87 {
        fill: #fff;
      }

      .cls-12 {
        opacity: 0;
      }

      .cls-13 {
        opacity: 0.04;
      }

      .cls-14 {
        opacity: 0.07;
      }

      .cls-15 {
        opacity: 0.11;
      }

      .cls-16 {
        opacity: 0.14;
      }

      .cls-17 {
        opacity: 0.18;
      }

      .cls-18 {
        opacity: 0.21;
      }

      .cls-19, .cls-51 {
        opacity: 0.25;
      }

      .cls-20 {
        opacity: 0.29;
      }

      .cls-21 {
        opacity: 0.32;
      }

      .cls-22 {
        opacity: 0.36;
      }

      .cls-23 {
        opacity: 0.39;
      }

      .cls-24 {
        opacity: 0.43;
      }

      .cls-25 {
        opacity: 0.46;
      }

      .cls-27 {
        opacity: 0.54;
      }

      .cls-28 {
        opacity: 0.57;
      }

      .cls-29 {
        opacity: 0.61;
      }

      .cls-30 {
        opacity: 0.64;
      }

      .cls-31 {
        opacity: 0.68;
      }

      .cls-32 {
        opacity: 0.71;
      }

      .cls-33 {
        opacity: 0.75;
      }

      .cls-34 {
        opacity: 0.79;
      }

      .cls-35 {
        opacity: 0.82;
      }

      .cls-36 {
        opacity: 0.86;
      }

      .cls-37 {
        opacity: 0.89;
      }

      .cls-38 {
        opacity: 0.93;
      }

      .cls-39 {
        opacity: 0.96;
      }

      .cls-41 {
        opacity: 0.12;
      }

      .cls-42 {
        opacity: 0.08;
      }

      .cls-43 {
        opacity: 0.17;
      }

      .cls-44 {
        opacity: 0.33;
      }

      .cls-45 {
        opacity: 0.42;
      }

      .cls-46 {
        opacity: 0.58;
      }

      .cls-47 {
        opacity: 0.67;
      }

      .cls-48 {
        opacity: 0.83;
      }

      .cls-49 {
        opacity: 0.92;
      }

      .cls-50 {
        opacity: 0.3;
      }

      .cls-52 {
        opacity: 0.02;
      }

      .cls-53 {
        opacity: 0.04;
      }

      .cls-54 {
        opacity: 0.06;
      }

      .cls-55 {
        opacity: 0.1;
      }

      .cls-56 {
        opacity: 0.13;
      }

      .cls-57 {
        opacity: 0.15;
      }

      .cls-58 {
        opacity: 0.19;
      }

      .cls-59 {
        opacity: 0.21;
      }

      .cls-60 {
        opacity: 0.23;
      }

      .cls-61 {
        opacity: 0.27;
      }

      .cls-62 {
        opacity: 0.29;
      }

      .cls-63 {
        opacity: 0.31;
      }

      .cls-64 {
        opacity: 0.35;
      }

      .cls-65 {
        opacity: 0.38;
      }

      .cls-66 {
        opacity: 0.4;
      }

      .cls-67 {
        opacity: 0.44;
      }

      .cls-68 {
        opacity: 0.46;
      }

      .cls-69 {
        opacity: 0.48;
      }

      .cls-70 {
        opacity: 0.52;
      }

      .cls-71 {
        opacity: 0.54;
      }

      .cls-72 {
        opacity: 0.56;
      }

      .cls-73 {
        opacity: 0.6;
      }

      .cls-74 {
        opacity: 0.63;
      }

      .cls-75 {
        opacity: 0.65;
      }

      .cls-76 {
        opacity: 0.69;
      }

      .cls-77 {
        opacity: 0.71;
      }

      .cls-78 {
        opacity: 0.73;
      }

      .cls-79 {
        opacity: 0.77;
      }

      .cls-80 {
        opacity: 0.79;
      }

      .cls-81 {
        opacity: 0.81;
      }

      .cls-82 {
        opacity: 0.85;
      }

      .cls-83 {
        opacity: 0.88;
      }

      .cls-84 {
        opacity: 0.9;
      }

      .cls-85 {
        opacity: 0.94;
      }

      .cls-86 {
        opacity: 0.96;
      }

      .cls-87 {
        opacity: 0.98;
      }
    </style>
    <radialGradient id="radial-gradient" cx="-926.68" cy="2096.51" r="402.89" gradientTransform="matrix(0, 0.08, -0.08, 0, 198.75, 104.81)" gradientUnits="userSpaceOnUse">
      <stop offset="0.86" stop-color="#1b1447"/>
      <stop offset="0.88" stop-color="#504b72"/>
      <stop offset="0.89" stop-color="#85819d"/>
      <stop offset="0.91" stop-color="#b1aec0"/>
      <stop offset="0.93" stop-color="#d3d1db"/>
      <stop offset="0.95" stop-color="#ebebef"/>
      <stop offset="0.96" stop-color="#fafafb"/>
      <stop offset="0.97" stop-color="#fff"/>
    </radialGradient>
    <clipPath id="clip-path" transform="translate(0 22.26)">
      <path class="cls-1" d="M25.63,58.76a28.42,28.42,0,1,1,33.66-22A28.43,28.43,0,0,1,25.63,58.76Z"/>
    </clipPath>
    <linearGradient id="linear-gradient" x1="37.8" y1="18.34" x2="-7.81" y2="84.21" gradientUnits="userSpaceOnUse">
      <stop offset="0" stop-color="#2872d3"/>
      <stop offset="0.15" stop-color="#266fce"/>
      <stop offset="0.33" stop-color="#2266bf"/>
      <stop offset="0.53" stop-color="#1b58a7"/>
      <stop offset="0.71" stop-color="#124688"/>
      <stop offset="0.96" stop-color="#053483"/>
    </linearGradient>
    <radialGradient id="radial-gradient-2" cx="4787.23" cy="5483.15" r="6.8" gradientTransform="matrix(-4.35, -0.01, 0.1, -4.5, 20350.84, 24748.64)" gradientUnits="userSpaceOnUse">
      <stop offset="0.12" stop-color="#ffffe3"/>
      <stop offset="0.17" stop-color="#f7f7dc"/>
      <stop offset="0.26" stop-color="#e0e0c8"/>
      <stop offset="0.37" stop-color="#babaa7"/>
      <stop offset="0.49" stop-color="#87877b"/>
      <stop offset="0.57" stop-color="#64645c"/>
      <stop offset="0.84" stop-color="#252525"/>
      <stop offset="1" stop-color="#000005"/>
    </radialGradient>
  </defs>
  <g class="cls-2">
    <g id="Calque_2" data-name="Calque 2">
      <g id="Layer_1" data-name="Layer 1">
        <g>
          <path class="cls-3" d="M32.11,63.63A31.82,31.82,0,1,1,31.9,0a31.82,31.82,0,1,1,.21,63.63Z" transform="translate(0 22.26)"/>
          <path class="cls-4" d="M25.63,58.76a28.42,28.42,0,1,1,33.66-22A28.43,28.43,0,0,1,25.63,58.76Z" transform="translate(0 22.26)"/>
          <g class="cls-5">
            <rect class="cls-6" x="2.83" y="24.14" width="19.03" height="61.94"/>
            <g class="cls-7">
              <rect class="cls-8" x="40.87" y="24.14" width="19.03" height="61.94"/>
            </g>
            <rect class="cls-9" x="20.51" y="24.14" width="21.75" height="61.94"/>
            <path class="cls-10" d="M9.68,8.3C10.06-8.63,23.61-22.31,40-22.26S69.26-8.46,68.88,8.47,55,39.07,38.6,39,9.31,25.22,9.68,8.3Z" transform="translate(0 22.26)"/>
          </g>
          <g>
            <g class="cls-11">
              <path class="cls-12" d="M40.76,45.16a17,17,0,1,1,4.93-23.48A17,17,0,0,1,40.76,45.16Zm18.39-8.39A28.27,28.27,0,1,0,25.67,58.62,28.28,28.28,0,0,0,59.15,36.77Z" transform="translate(0 22.26)"/>
              <path class="cls-13" d="M22,16.43a17.35,17.35,0,1,1-7.49,11A17.31,17.31,0,0,1,22,16.43ZM37.3,3.3a28.12,28.12,0,1,0,6.25,2.09A28.25,28.25,0,0,0,37.3,3.3Z" transform="translate(0 22.26)"/>
              <path class="cls-14" d="M21.81,16.12a17.71,17.71,0,1,1,6,32.16A17.46,17.46,0,0,1,23.93,47a17.71,17.71,0,0,1-2.12-30.85ZM37.29,3.31A28.15,28.15,0,1,0,43.54,5.4,28.24,28.24,0,0,0,37.29,3.31Z" transform="translate(0 22.26)"/>
              <path class="cls-15" d="M21.6,15.81a18.08,18.08,0,1,1-7.81,11.42A18,18,0,0,1,21.6,15.81ZM37.29,3.32a28.11,28.11,0,1,0,6.25,2.09A28.23,28.23,0,0,0,37.29,3.32Z" transform="translate(0 22.26)"/>
              <path class="cls-16" d="M21.4,15.5A18.45,18.45,0,1,1,27.69,49a18.84,18.84,0,0,1-4.08-1.37A18.45,18.45,0,0,1,21.4,15.5ZM37.29,3.33a28.13,28.13,0,1,0,6.24,2.09A28.23,28.23,0,0,0,37.29,3.33Z" transform="translate(0 22.26)"/>
              <path class="cls-17" d="M21.2,15.19a18.82,18.82,0,1,1,6.41,34.18A19,19,0,0,1,23.45,48,18.82,18.82,0,0,1,21.2,15.19ZM37.29,3.34a28.12,28.12,0,1,0,6.24,2.09A28.23,28.23,0,0,0,37.29,3.34Z" transform="translate(0 22.26)"/>
              <path class="cls-18" d="M21,14.88A19.19,19.19,0,1,1,12.7,27,19.09,19.09,0,0,1,21,14.88ZM37.28,3.35a28.12,28.12,0,1,0,6.24,2.09A28.61,28.61,0,0,0,37.28,3.35Z" transform="translate(0 22.26)"/>
              <path class="cls-19" d="M20.79,14.57A19.56,19.56,0,1,1,27.46,50.1a19.87,19.87,0,0,1-4.33-1.45,19.57,19.57,0,0,1-2.34-34.08ZM37.28,3.37a28,28,0,1,0,6.24,2.08A28.18,28.18,0,0,0,37.28,3.37Z" transform="translate(0 22.26)"/>
              <path class="cls-20" d="M20.59,14.26A19.92,19.92,0,1,1,12,26.85,19.83,19.83,0,0,1,20.59,14.26ZM37.28,3.38a28,28,0,1,0,6.23,2.08A28.18,28.18,0,0,0,37.28,3.38Z" transform="translate(0 22.26)"/>
              <path class="cls-21" d="M20.39,14a20.3,20.3,0,1,1,6.92,36.87,20.22,20.22,0,0,1-12.83-8.77A20.29,20.29,0,0,1,20.39,14ZM37.28,3.39a28,28,0,1,0,6.23,2.08A28.17,28.17,0,0,0,37.28,3.39Z" transform="translate(0 22.26)"/>
              <path class="cls-22" d="M20.18,13.63a20.68,20.68,0,1,1,7.05,37.56,21.17,21.17,0,0,1-4.57-1.53,20.69,20.69,0,0,1-2.48-36ZM37.27,3.4A28,28,0,1,0,43.5,5.48,28.69,28.69,0,0,0,37.27,3.4Z" transform="translate(0 22.26)"/>
              <path class="cls-23" d="M20,13.32a21,21,0,1,1-9.1,13.3A21,21,0,0,1,20,13.32ZM37.27,3.41A28,28,0,1,0,43.5,5.49,28.87,28.87,0,0,0,37.27,3.41Z" transform="translate(0 22.26)"/>
              <path class="cls-24" d="M19.78,13a21.41,21.41,0,1,1-9.26,13.53A21.35,21.35,0,0,1,19.78,13ZM37.27,3.42a28.12,28.12,0,1,0,6.22,2.09A28.14,28.14,0,0,0,37.27,3.42Z" transform="translate(0 22.26)"/>
              <path class="cls-25" d="M19.57,12.7A21.79,21.79,0,1,1,27,52.28a22.41,22.41,0,0,1-4.82-1.62,21.8,21.8,0,0,1-2.61-38Zm17.7-9.26a28,28,0,1,0,6.22,2.08A28.43,28.43,0,0,0,37.27,3.44Z" transform="translate(0 22.26)"/>
              <path class="cls-26" d="M19.37,12.39a22.16,22.16,0,1,1,7.55,40.25A22.59,22.59,0,0,1,22,51a22.18,22.18,0,0,1-2.65-38.61ZM37.26,3.45a28,28,0,1,0,6.22,2.08A28.12,28.12,0,0,0,37.26,3.45Z" transform="translate(0 22.26)"/>
              <path class="cls-27" d="M19.17,12.08A22.54,22.54,0,1,1,9.43,26.32,22.4,22.4,0,0,1,19.17,12.08ZM37.26,3.46a28,28,0,1,0,6.22,2.08A28.43,28.43,0,0,0,37.26,3.46Z" transform="translate(0 22.26)"/>
              <path class="cls-28" d="M19,11.77a22.9,22.9,0,1,1,7.8,41.6A22.9,22.9,0,0,1,9.07,26.24,22.77,22.77,0,0,1,19,11.77Zm18.29-8.3a28,28,0,1,0,6.21,2.08A28.1,28.1,0,0,0,37.26,3.47Z" transform="translate(0 22.26)"/>
              <path class="cls-29" d="M18.76,11.46A23.27,23.27,0,1,1,26.7,53.73,23.8,23.8,0,0,1,21.55,52a23.29,23.29,0,0,1-2.79-40.55Zm18.5-8a28,28,0,1,0,6.21,2.08A28.1,28.1,0,0,0,37.26,3.48Z" transform="translate(0 22.26)"/>
              <path class="cls-30" d="M18.56,11.15A23.64,23.64,0,1,1,8.34,26.09,23.54,23.54,0,0,1,18.56,11.15ZM37.25,3.49a28,28,0,1,0,6.21,2.08A28.09,28.09,0,0,0,37.25,3.49Z" transform="translate(0 22.26)"/>
              <path class="cls-31" d="M18.36,10.84a24,24,0,1,1,8.18,43.62,24.21,24.21,0,0,1-5.31-1.78,24,24,0,0,1-2.87-41.84ZM37.25,3.51a27.85,27.85,0,1,0,6.21,2.07A28.05,28.05,0,0,0,37.25,3.51Z" transform="translate(0 22.26)"/>
              <path class="cls-32" d="M18.15,10.53A24.39,24.39,0,1,1,44.81,51.38a24.24,24.24,0,0,1-18.34,3.44,25,25,0,0,1-5.4-1.8,24.41,24.41,0,0,1-2.92-42.49Zm19.1-7a27.87,27.87,0,1,0,6.2,2.07A27.72,27.72,0,0,0,37.25,3.52Z" transform="translate(0 22.26)"/>
              <path class="cls-33" d="M18,10.22a24.76,24.76,0,1,1,8.44,45,25.21,25.21,0,0,1-5.48-1.83,24.76,24.76,0,0,1-3-43.13Zm19.3-6.69a27.83,27.83,0,1,0,6.2,2.07A28.42,28.42,0,0,0,37.25,3.53Z" transform="translate(0 22.26)"/>
              <path class="cls-34" d="M17.75,9.91a25.13,25.13,0,1,1,8.56,45.64,25.51,25.51,0,0,1-5.55-1.86,25.13,25.13,0,0,1-3-43.78ZM37.24,3.54a27.86,27.86,0,1,0,6.2,2.07A28.77,28.77,0,0,0,37.24,3.54Z" transform="translate(0 22.26)"/>
              <path class="cls-35" d="M17.55,9.6A25.5,25.5,0,1,1,45.42,52.31a25.35,25.35,0,0,1-19.18,3.6A25.8,25.8,0,0,1,20.6,54,25.51,25.51,0,0,1,6.53,25.71,25.28,25.28,0,0,1,17.55,9.6Zm19.69-6a27.82,27.82,0,1,0,6.2,2.07A29,29,0,0,0,37.24,3.55Z" transform="translate(0 22.26)"/>
              <path class="cls-36" d="M17.34,9.29A25.87,25.87,0,1,1,45.62,52.62a25.68,25.68,0,0,1-19.46,3.65,26,26,0,0,1-5.72-1.91A25.92,25.92,0,0,1,6.16,25.63,25.71,25.71,0,0,1,17.34,9.29Zm19.9-5.73a27.84,27.84,0,1,0,6.19,2.07A28.69,28.69,0,0,0,37.24,3.56Z" transform="translate(0 22.26)"/>
              <path class="cls-37" d="M17.14,9a26.24,26.24,0,0,1,40,27.37A26.24,26.24,0,0,1,26.08,56.64a26.72,26.72,0,0,1-5.8-1.94A26.25,26.25,0,0,1,17.14,9Zm20.1-5.4a27.72,27.72,0,1,0,6.19,2.06A28.49,28.49,0,0,0,37.24,3.58Z" transform="translate(0 22.26)"/>
              <path class="cls-38" d="M16.94,8.66A26.62,26.62,0,0,1,46,53.24,26.45,26.45,0,0,1,26,57a26.84,26.84,0,0,1-5.89-2A26.63,26.63,0,0,1,16.94,8.66ZM37.23,3.59a27.72,27.72,0,1,0,6.19,2.06A28,28,0,0,0,37.23,3.59Z" transform="translate(0 22.26)"/>
              <path class="cls-39" d="M16.73,8.35a27,27,0,0,1,29.5,45.2,26.83,26.83,0,0,1-20.3,3.81,27.73,27.73,0,0,1-6-2,27,27,0,0,1-3.23-47ZM37.23,3.6a27.75,27.75,0,1,0,6.18,2.06A28,28,0,0,0,37.23,3.6Z" transform="translate(0 22.26)"/>
              <path class="cls-40" d="M46.43,53.86A27.35,27.35,0,0,1,4.71,25.33,27.35,27.35,0,0,1,54.39,16a27.36,27.36,0,0,1-8,37.86Zm8.45-38.18a27.67,27.67,0,0,0-11.47-10A28,28,0,0,0,4.14,25.21a27.94,27.94,0,1,0,50.74-9.53Z" transform="translate(0 22.26)"/>
            </g>
            <path class="cls-41" d="M31.63,57.56a34.39,34.39,0,0,1-8.46-1.49,26.88,26.88,0,0,1-8.84-4.45h0a17.86,17.86,0,0,0,8.38,5.07,20.66,20.66,0,0,0,8.92.87Z" transform="translate(0 22.26)"/>
            <g class="cls-11">
              <path class="cls-12" d="M42.84,14.29l2.48-5.46A25.69,25.69,0,0,0,31.79,6.94l3.82,5.6A16,16,0,0,1,42.84,14.29Z" transform="translate(0 22.26)"/>
              <path class="cls-16" d="M32.68,7.13l3.47,5.21a15.73,15.73,0,0,1,5.31,1.1c.44.17.88.34,1.28.51l1.7-3.77s.54-1.26.5-1.27A24.18,24.18,0,0,0,32.68,7.13Z" transform="translate(0 22.26)"/>
              <path class="cls-20" d="M33.57,7.33l3.11,4.8a16.42,16.42,0,0,1,4.8,1.09c.41.16.81.28,1.16.39l1.55-3.47A6.17,6.17,0,0,0,44.56,9,22.64,22.64,0,0,0,33.57,7.33Z" transform="translate(0 22.26)"/>
              <path class="cls-24" d="M34.45,7.52l2.77,4.41A17,17,0,0,1,41.51,13a5.26,5.26,0,0,0,1,.27l1.39-3.17c0-.1.36-1,.26-1A21.47,21.47,0,0,0,34.45,7.52Z" transform="translate(0 22.26)"/>
              <path class="cls-28" d="M35.34,7.71l2.42,4a19.66,19.66,0,0,1,3.77,1.07,2.25,2.25,0,0,0,.91.14l1.24-2.87c.06-.13.27-.88.13-.93A20.33,20.33,0,0,0,35.34,7.71Z" transform="translate(0 22.26)"/>
              <path class="cls-32" d="M36.23,7.91l2.06,3.61a26.84,26.84,0,0,1,3.26,1.05,1.14,1.14,0,0,0,.79,0L43.43,10c.08-.16.17-.76,0-.82A19.85,19.85,0,0,0,36.23,7.91Z" transform="translate(0 22.26)"/>
              <path class="cls-36" d="M37.12,8.1l1.71,3.21c.87.31,1.84.7,2.75,1a.63.63,0,0,0,.66-.1L43.18,10c.09-.2.08-.63-.13-.7A20.48,20.48,0,0,0,37.12,8.1Z" transform="translate(0 22.26)"/>
              <path class="cls-40" d="M39.36,11.11a19.9,19.9,0,0,0,2.24,1,.43.43,0,0,0,.54-.23l.78-2a.43.43,0,0,0-.25-.59A26.23,26.23,0,0,0,38,8.3Z" transform="translate(0 22.26)"/>
            </g>
            <g class="cls-11">
              <path class="cls-12" d="M43.41,14.73a.41.41,0,0,0,.1.49c1.68,1.46,4.82,4.51,5.8,6.56a15.94,15.94,0,0,1,1.24,10.13l4.71,4.88a21.9,21.9,0,0,0-.6-17.57,21.05,21.05,0,0,0-8.41-9.31.4.4,0,0,0-.57.17Z" transform="translate(0 22.26)"/>
              <path class="cls-42" d="M45.91,10.33l-2.2,4.48a.41.41,0,0,0,.08.47c.19.17.39.4.62.61l.47.47a22.64,22.64,0,0,1,4.43,5.28,15.93,15.93,0,0,1,1.52,8.29c0,.5-.09,1-.16,1.44l4.57,4.4a17.34,17.34,0,0,0,1.08-3.55,21,21,0,0,0-1.72-13,20.44,20.44,0,0,0-8-9l-.17-.1A.4.4,0,0,0,45.91,10.33Z" transform="translate(0 22.26)"/>
              <path class="cls-43" d="M46.14,10.57,44,14.89a.39.39,0,0,0,.06.45c.18.16.34.4.54.61s.27.3.43.45a22,22,0,0,1,4.27,5.1,15.47,15.47,0,0,1,.84,2.07,15.78,15.78,0,0,1,.72,5.91c0,.48,0,.93-.08,1.34l4.43,3.94a13.07,13.07,0,0,0,1-3.32,20.14,20.14,0,0,0-1.71-12.2,19.9,19.9,0,0,0-7.7-8.76l-.16-.09A.4.4,0,0,0,46.14,10.57Z" transform="translate(0 22.26)"/>
              <path class="cls-19" d="M46.37,10.81,44.31,15a.41.41,0,0,0,0,.44,6.42,6.42,0,0,1,.46.59c.12.13.24.3.39.45a21,21,0,0,1,4.12,4.91,18,18,0,0,1,.81,2A15.41,15.41,0,0,1,50.91,29c0,.47,0,.89,0,1.25l4.28,3.48a10.56,10.56,0,0,0,1-3.09,19.36,19.36,0,0,0-1.71-11.41,19.23,19.23,0,0,0-7.43-8.53l-.16-.09A.39.39,0,0,0,46.37,10.81Z" transform="translate(0 22.26)"/>
              <path class="cls-44" d="M46.61,11.05l-2,4c-.06.12-.08.35,0,.43s.23.4.38.58a3.21,3.21,0,0,0,.36.45,19.84,19.84,0,0,1,4,4.73,16.85,16.85,0,0,1,.79,1.9A15.53,15.53,0,0,1,51,28.57,7.62,7.62,0,0,0,51,29.73l4.14,3a8.35,8.35,0,0,0,1-2.85,18.75,18.75,0,0,0-1.71-10.63A18.65,18.65,0,0,0,47.26,11l-.15-.08A.36.36,0,0,0,46.61,11.05Z" transform="translate(0 22.26)"/>
              <path class="cls-45" d="M46.84,11.29l-1.92,3.83c-.05.1-.09.34,0,.41s.15.44.3.57a1.36,1.36,0,0,0,.32.44,19.38,19.38,0,0,1,3.79,4.55,15.52,15.52,0,0,1,.77,1.82,15.27,15.27,0,0,1,.9,5.2,4.1,4.1,0,0,0,.16,1.07l4,2.54a6.35,6.35,0,0,0,.91-2.62,18,18,0,0,0-1.7-9.84,18,18,0,0,0-6.89-8.06l-.14-.08A.37.37,0,0,0,46.84,11.29Z" transform="translate(0 22.26)"/>
              <path class="cls-26" d="M47.07,11.53,45.22,15.2c0,.08-.1.33,0,.39s.09.45.22.56a1.08,1.08,0,0,0,.28.44A18.3,18.3,0,0,1,49.32,21a17.22,17.22,0,0,1,.76,1.74,15.79,15.79,0,0,1,1,5,2.38,2.38,0,0,0,.24,1l3.86,2.07A5.15,5.15,0,0,0,56,28.32a17.35,17.35,0,0,0-1.7-9,17.43,17.43,0,0,0-6.61-7.83.55.55,0,0,0-.15-.08A.37.37,0,0,0,47.07,11.53Z" transform="translate(0 22.26)"/>
              <path class="cls-46" d="M47.3,11.77l-1.78,3.51c0,.07-.11.32-.05.37s0,.46.14.55a.82.82,0,0,0,.24.43,17.4,17.4,0,0,1,3.47,4.18c.27.53.51,1.08.74,1.66a15.9,15.9,0,0,1,1,4.73,1.65,1.65,0,0,0,.32.89l3.72,1.61a4,4,0,0,0,.83-2.16,16.83,16.83,0,0,0-1.7-8.26,16.93,16.93,0,0,0-6.34-7.61l-.14-.07A.36.36,0,0,0,47.3,11.77Z" transform="translate(0 22.26)"/>
              <path class="cls-47" d="M47.53,12l-1.71,3.34c0,.06-.12.32-.07.36s0,.47.06.54a.65.65,0,0,0,.21.43,16.45,16.45,0,0,1,3.3,4c.26.5.49,1,.72,1.58a15.78,15.78,0,0,1,1.07,4.5,1.08,1.08,0,0,0,.4.79l3.58,1.14a3,3,0,0,0,.78-1.92,16.46,16.46,0,0,0-1.69-7.47,16.28,16.28,0,0,0-6.07-7.38L48,11.84A.36.36,0,0,0,47.53,12Z" transform="translate(0 22.26)"/>
              <path class="cls-33" d="M47.77,12.26l-1.65,3.17s-.12.31-.09.35-.09.47,0,.52a.49.49,0,0,0,.17.42,15.83,15.83,0,0,1,3.14,3.82A15.87,15.87,0,0,1,50,22a16.56,16.56,0,0,1,1.13,4.27.85.85,0,0,0,.48.7l3.43.67A2.23,2.23,0,0,0,55.81,26a16.38,16.38,0,0,0-1.69-6.69c-1.71-3.57-3.21-5.38-5.8-7.14l-.13-.07A.35.35,0,0,0,47.77,12.26Z" transform="translate(0 22.26)"/>
              <path class="cls-48" d="M48,12.5l-1.57,3a1.21,1.21,0,0,0-.12.33s-.15.48-.1.52a.42.42,0,0,0,.13.41,14.53,14.53,0,0,1,3,3.63A14.51,14.51,0,0,1,50,21.82a16.5,16.5,0,0,1,1.19,4,.69.69,0,0,0,.56.61l3.29.21a1.65,1.65,0,0,0,.71-1.46,16.79,16.79,0,0,0-1.69-5.9c-1.68-3.52-3-5.19-5.53-6.91l-.12-.07A.36.36,0,0,0,48,12.5Z" transform="translate(0 22.26)"/>
              <path class="cls-49" d="M48.23,12.74l-1.5,2.85a2.12,2.12,0,0,0-.14.31s-.21.49-.19.51a.38.38,0,0,0,.1.4,13.86,13.86,0,0,1,2.82,3.45c.23.41.44.85.67,1.34a18.26,18.26,0,0,1,1.24,3.79.64.64,0,0,0,.64.52L55,25.65a1.17,1.17,0,0,0,.66-1.23A17.53,17.53,0,0,0,54,19.31c-1.66-3.47-2.86-5-5.26-6.69l-.12,0A.34.34,0,0,0,48.23,12.74Z" transform="translate(0 22.26)"/>
              <path class="cls-40" d="M53.94,19.32c-1.63-3.42-2.69-4.8-5-6.46a.34.34,0,0,0-.5.12L46.6,16.46a.34.34,0,0,0,.07.4A13.11,13.11,0,0,1,50,21.38a19.69,19.69,0,0,1,1.3,3.55.59.59,0,0,0,.72.43l3-.73a.82.82,0,0,0,.62-1A21.51,21.51,0,0,0,53.94,19.32Z" transform="translate(0 22.26)"/>
            </g>
            <path class="cls-50" d="M21.22,6.15A40.78,40.78,0,0,1,32.37,4.57a25.11,25.11,0,0,1,12,2.72h0c-2.43-1.93-6.07-3.36-12-3.64-4.71-.23-8.14,1.24-11.1,2.5Z" transform="translate(0 22.26)"/>
            <g class="cls-51">
              <path class="cls-12" d="M4.22,35.65c-1.13-2.53-.91-4.83-.83-7.73A25.82,25.82,0,0,1,11,10.58,26.45,26.45,0,0,1,29.09,2.66,28.16,28.16,0,0,1,41,4.89c1.42.6,2.1,3.12.54,3.27a51.84,51.84,0,0,0-12.88,2.77A31.65,31.65,0,0,0,19,16.47a30.34,30.34,0,0,0-6.81,8.43A47,47,0,0,0,7.82,36.33C7.47,37.72,4.81,37,4.22,35.65Z" transform="translate(0 22.26)"/>
              <path class="cls-52" d="M28.92,2.75A28.44,28.44,0,0,1,40.77,4.88c1.42.59,2.09,3.07.54,3.23l-1.63.19a49.5,49.5,0,0,0-11.13,2.56A35.58,35.58,0,0,0,25,12.41a30,30,0,0,0-6,3.94A28.18,28.18,0,0,0,15.42,20a32,32,0,0,0-3.22,4.73A40.41,40.41,0,0,0,9.76,30,53.42,53.42,0,0,0,7.85,36c-.35,1.37-3,.65-3.55-.62a9.83,9.83,0,0,1-.65-2,18.44,18.44,0,0,1-.23-4.52q0-.51,0-1.05A24.79,24.79,0,0,1,6.64,16.48,27.24,27.24,0,0,1,15.56,7,26,26,0,0,1,28.92,2.75Z" transform="translate(0 22.26)"/>
              <path class="cls-53" d="M28.74,2.84a28.31,28.31,0,0,1,11.81,2c1.42.57,2.08,3,.54,3.18l-1.61.19a48.69,48.69,0,0,0-11,2.55,36,36,0,0,0-3.56,1.53,29.86,29.86,0,0,0-5.94,3.89,28.35,28.35,0,0,0-3.52,3.58,30.9,30.9,0,0,0-3.21,4.68,41,41,0,0,0-2.43,5.21,53,53,0,0,0-1.9,6c-.35,1.35-2.92.67-3.49-.56a8.81,8.81,0,0,1-.65-1.91,17.53,17.53,0,0,1-.26-4.43l0-1A24.74,24.74,0,0,1,6.69,16.5a26.8,26.8,0,0,1,8.83-9.45A25.93,25.93,0,0,1,28.74,2.84Z" transform="translate(0 22.26)"/>
              <path class="cls-54" d="M28.57,2.92a28.61,28.61,0,0,1,11.76,2c1.43.56,2.07,3,.55,3.14l-1.61.19a49.27,49.27,0,0,0-10.94,2.53,36.4,36.4,0,0,0-3.53,1.52,29.62,29.62,0,0,0-5.89,3.85,28.47,28.47,0,0,0-3.5,3.53,31.38,31.38,0,0,0-3.18,4.64A39.59,39.59,0,0,0,9.8,29.43a51.93,51.93,0,0,0-1.89,6c-.35,1.34-2.87.69-3.44-.49A8.85,8.85,0,0,1,3.83,33a15.71,15.71,0,0,1-.29-4.33c0-.34,0-.68,0-1A24.6,24.6,0,0,1,6.74,16.52a26.84,26.84,0,0,1,8.74-9.38A25.76,25.76,0,0,1,28.57,2.92Z" transform="translate(0 22.26)"/>
              <path class="cls-42" d="M28.4,3A29,29,0,0,1,40.11,4.87c1.43.55,2.07,2.92.55,3.09l-1.59.19a49.36,49.36,0,0,0-10.84,2.51,32.63,32.63,0,0,0-3.5,1.51A29.17,29.17,0,0,0,18.88,16a27.9,27.9,0,0,0-3.47,3.49,31.61,31.61,0,0,0-3.17,4.59,38.7,38.7,0,0,0-2.41,5.1,53.73,53.73,0,0,0-1.9,5.9c-.34,1.33-2.82.71-3.38-.42a8.39,8.39,0,0,1-.64-1.79,15.13,15.13,0,0,1-.31-4.23c0-.34,0-.67,0-1A24.56,24.56,0,0,1,6.79,16.54a26.72,26.72,0,0,1,8.65-9.3A25.65,25.65,0,0,1,28.4,3Z" transform="translate(0 22.26)"/>
              <path class="cls-55" d="M28.23,3.1A28.76,28.76,0,0,1,39.89,4.87c1.43.53,2.06,2.87.55,3l-1.57.19a48.53,48.53,0,0,0-10.75,2.5,34.13,34.13,0,0,0-3.47,1.48,29.52,29.52,0,0,0-5.8,3.77,27.5,27.5,0,0,0-3.45,3.46,31,31,0,0,0-3.15,4.54,39.27,39.27,0,0,0-2.4,5A53.32,53.32,0,0,0,8,34.74c-.35,1.32-2.77.73-3.33-.36A8.29,8.29,0,0,1,4,32.67a13.93,13.93,0,0,1-.34-4.14c0-.33,0-.67,0-1a24.43,24.43,0,0,1,3.14-11A26.52,26.52,0,0,1,15.4,7.33,25.57,25.57,0,0,1,28.23,3.1Z" transform="translate(0 22.26)"/>
              <path class="cls-56" d="M28.06,3.18A29.45,29.45,0,0,1,39.67,4.86c1.43.52,2,2.82.55,3l-1.56.2A48.46,48.46,0,0,0,28,10.53,34.53,34.53,0,0,0,24.57,12a28.83,28.83,0,0,0-5.75,3.73,28.41,28.41,0,0,0-3.43,3.42,30.34,30.34,0,0,0-3.12,4.49,39.2,39.2,0,0,0-2.4,5A52.22,52.22,0,0,0,8,34.42c-.35,1.31-2.73.75-3.28-.29a8.42,8.42,0,0,1-.63-1.65,13.36,13.36,0,0,1-.36-4c0-.33,0-.66,0-1A24.37,24.37,0,0,1,6.88,16.58,26.45,26.45,0,0,1,11.06,11a27.3,27.3,0,0,1,4.3-3.56A25.73,25.73,0,0,1,28.06,3.18Z" transform="translate(0 22.26)"/>
              <path class="cls-57" d="M27.89,3.27A29.46,29.46,0,0,1,39.45,4.86c1.44.5,2,2.76.55,2.95L38.46,8a48.12,48.12,0,0,0-10.55,2.45,33,33,0,0,0-3.41,1.46,29.24,29.24,0,0,0-5.71,3.68A27.91,27.91,0,0,0,15.39,19a29.8,29.8,0,0,0-3.11,4.44A36.57,36.57,0,0,0,9.9,28.38,51.13,51.13,0,0,0,8,34.1c-.35,1.3-2.68.78-3.22-.23a7.8,7.8,0,0,1-.63-1.57,11.94,11.94,0,0,1-.39-3.95c0-.33,0-.66.05-1A24.38,24.38,0,0,1,6.93,16.6a26.52,26.52,0,0,1,8.39-9.09A25.55,25.55,0,0,1,27.89,3.27Z" transform="translate(0 22.26)"/>
              <path class="cls-43" d="M27.72,3.36a29.36,29.36,0,0,1,11.5,1.5c1.45.48,2,2.71.56,2.9L38.25,8A48.64,48.64,0,0,0,27.8,10.39a35.78,35.78,0,0,0-3.38,1.45,28.71,28.71,0,0,0-5.66,3.64,28.06,28.06,0,0,0-3.38,3.34,31.16,31.16,0,0,0-3.09,4.4,37.7,37.7,0,0,0-2.37,4.9A52.13,52.13,0,0,0,8,33.78c-.34,1.29-2.63.8-3.16-.16a7.3,7.3,0,0,1-.62-1.51,10.91,10.91,0,0,1-.41-3.86c0-.32,0-.64,0-1A24.35,24.35,0,0,1,7,16.62a26.32,26.32,0,0,1,8.3-9A25.51,25.51,0,0,1,27.72,3.36Z" transform="translate(0 22.26)"/>
              <path class="cls-58" d="M27.55,3.45A29.55,29.55,0,0,1,39,4.85c1.45.48,2,2.66.57,2.87l-1.52.19a47.79,47.79,0,0,0-10.36,2.42,35.1,35.1,0,0,0-3.35,1.42,28.5,28.5,0,0,0-5.61,3.61,26.78,26.78,0,0,0-3.35,3.3A30.54,30.54,0,0,0,12.31,23,37,37,0,0,0,10,27.86a51.74,51.74,0,0,0-1.88,5.6c-.34,1.27-2.58.82-3.11-.09a7.44,7.44,0,0,1-.62-1.45,10.35,10.35,0,0,1-.43-3.76c0-.31,0-.64,0-1A24.08,24.08,0,0,1,7,16.64,26.09,26.09,0,0,1,15.25,7.7,25.27,25.27,0,0,1,27.55,3.45Z" transform="translate(0 22.26)"/>
              <path class="cls-59" d="M27.37,3.53A30,30,0,0,1,38.78,4.85c1.46.46,2,2.61.57,2.82l-1.5.2a47.46,47.46,0,0,0-10.26,2.39,31.23,31.23,0,0,0-3.32,1.41,27.8,27.8,0,0,0-5.56,3.56,26.45,26.45,0,0,0-3.34,3.27,29.38,29.38,0,0,0-3,4.3A37.55,37.55,0,0,0,10,27.6,48.11,48.11,0,0,0,8.1,33.15c-.35,1.25-2.54.83-3.06,0a7,7,0,0,1-.61-1.37A9.41,9.41,0,0,1,4,28.07c0-.31,0-.63,0-1A24.05,24.05,0,0,1,7.08,16.66a25.9,25.9,0,0,1,8.13-8.87A25.28,25.28,0,0,1,27.37,3.53Z" transform="translate(0 22.26)"/>
              <path class="cls-60" d="M27.2,3.62A30.15,30.15,0,0,1,38.56,4.84c1.46.45,2,2.56.57,2.78l-1.48.2a47.36,47.36,0,0,0-10.17,2.37,33.87,33.87,0,0,0-3.29,1.4,28,28,0,0,0-5.51,3.52,26.59,26.59,0,0,0-3.31,3.23,29.37,29.37,0,0,0-3,4.25A36.81,36.81,0,0,0,10,27.34a49,49,0,0,0-1.86,5.49c-.35,1.24-2.49.85-3,0a7.17,7.17,0,0,1-.6-1.31A8.5,8.5,0,0,1,4,28c0-.31,0-.62,0-.95A24.07,24.07,0,0,1,7.13,16.68a25.54,25.54,0,0,1,4-5.36,26.44,26.44,0,0,1,4.08-3.44A25.21,25.21,0,0,1,27.2,3.62Z" transform="translate(0 22.26)"/>
              <path class="cls-19" d="M27,3.71A30.14,30.14,0,0,1,38.34,4.84c1.46.43,2,2.51.57,2.73l-1.47.2a47.29,47.29,0,0,0-10.07,2.36,31,31,0,0,0-3.26,1.38A27.74,27.74,0,0,0,18.65,15a26.18,26.18,0,0,0-3.29,3.2,28.72,28.72,0,0,0-3,4.2A35.32,35.32,0,0,0,10,27.07a48.81,48.81,0,0,0-1.86,5.44c-.35,1.23-2.44.87-2.95.09a6.45,6.45,0,0,1-.61-1.24,7.82,7.82,0,0,1-.51-3.47L4.15,27a24,24,0,0,1,3-10.25,25.92,25.92,0,0,1,8-8.73A25.19,25.19,0,0,1,27,3.71Z" transform="translate(0 22.26)"/>
              <path class="cls-61" d="M26.86,3.8a30.11,30.11,0,0,1,11.26,1c1.46.41,2,2.45.57,2.68l-1.45.2a47.67,47.67,0,0,0-10,2.34A32.42,32.42,0,0,0,24,11.42a27.48,27.48,0,0,0-5.42,3.44A25.57,25.57,0,0,0,15.36,18a28.82,28.82,0,0,0-3,4.16A35.86,35.86,0,0,0,10,26.81a49.81,49.81,0,0,0-1.86,5.38c-.34,1.22-2.39.9-2.89.16a6.85,6.85,0,0,1-.6-1.17,7.2,7.2,0,0,1-.54-3.38q0-.45.06-.93a24,24,0,0,1,3-10.15,25.91,25.91,0,0,1,3.89-5.27,25.31,25.31,0,0,1,4-3.38A24.92,24.92,0,0,1,26.86,3.8Z" transform="translate(0 22.26)"/>
              <path class="cls-62" d="M26.69,3.88a30.73,30.73,0,0,1,11.21,1c1.47.4,2,2.41.57,2.64L37,7.67A47.34,47.34,0,0,0,27.16,10,34.54,34.54,0,0,0,24,11.34a27.71,27.71,0,0,0-5.37,3.4,25.08,25.08,0,0,0-3.24,3.11,29,29,0,0,0-3,4.11,36.43,36.43,0,0,0-2.31,4.59,48.7,48.7,0,0,0-1.85,5.32c-.35,1.21-2.34.92-2.84.23A6.34,6.34,0,0,1,4.78,31a6.45,6.45,0,0,1-.57-3.28c0-.3,0-.61.07-.92a23.74,23.74,0,0,1,3-10,25.35,25.35,0,0,1,7.78-8.58A24.91,24.91,0,0,1,26.69,3.88Z" transform="translate(0 22.26)"/>
              <path class="cls-63" d="M26.52,4a30.71,30.71,0,0,1,11.16.86c1.47.39,2,2.35.58,2.59l-1.43.21a47.33,47.33,0,0,0-9.78,2.29c-1.11.41-2.16.85-3.17,1.34a27.74,27.74,0,0,0-5.32,3.35,25.28,25.28,0,0,0-3.21,3.08,27.63,27.63,0,0,0-3,4.06,35.06,35.06,0,0,0-2.3,4.54,45.62,45.62,0,0,0-1.85,5.26c-.35,1.2-2.3.94-2.79.29a7,7,0,0,1-.59-1,5.8,5.8,0,0,1-.58-3.18l.06-.91a23.72,23.72,0,0,1,3-9.95,24.86,24.86,0,0,1,3.8-5.17A25.39,25.39,0,0,1,15,8.25,24.84,24.84,0,0,1,26.52,4Z" transform="translate(0 22.26)"/>
              <path class="cls-44" d="M26.35,4.06a30.92,30.92,0,0,1,11.11.76c1.47.38,2,2.31.58,2.55-.46.08-.93.14-1.41.21a46.59,46.59,0,0,0-9.69,2.28,30.62,30.62,0,0,0-3.13,1.32,27,27,0,0,0-5.28,3.31,24.81,24.81,0,0,0-3.19,3,27.77,27.77,0,0,0-2.94,4A34.34,34.34,0,0,0,10.11,26a47.24,47.24,0,0,0-1.84,5.2c-.35,1.18-2.25,1-2.74.36a6.88,6.88,0,0,1-.58-1,5.29,5.29,0,0,1-.61-3.09l.06-.9a23.61,23.61,0,0,1,3-9.85A25.38,25.38,0,0,1,15,8.34,24.75,24.75,0,0,1,26.35,4.06Z" transform="translate(0 22.26)"/>
              <path class="cls-64" d="M26.18,4.15a30.83,30.83,0,0,1,11,.67c1.49.36,2,2.25.59,2.5-.45.08-.91.14-1.4.21a46.81,46.81,0,0,0-9.58,2.26,32.6,32.6,0,0,0-3.11,1.3,27.21,27.21,0,0,0-5.23,3.27,25,25,0,0,0-3.16,3,27.79,27.79,0,0,0-2.93,4,33,33,0,0,0-2.27,4.44A46.15,46.15,0,0,0,8.3,30.91c-.35,1.17-2.2,1-2.68.42a5.22,5.22,0,0,1-.58-.9,4.8,4.8,0,0,1-.64-3c0-.29,0-.59.07-.9a23.59,23.59,0,0,1,3-9.74,25.16,25.16,0,0,1,3.71-5.08,25.59,25.59,0,0,1,3.81-3.29A24.73,24.73,0,0,1,26.18,4.15Z" transform="translate(0 22.26)"/>
              <path class="cls-65" d="M26,4.23a31.31,31.31,0,0,1,11,.59c1.49.34,2,2.19.59,2.45q-.66.12-1.38.21a46.58,46.58,0,0,0-9.49,2.24A33.08,33.08,0,0,0,23.65,11a27.15,27.15,0,0,0-5.18,3.23,24.52,24.52,0,0,0-3.14,3,26.59,26.59,0,0,0-2.9,3.91,32.94,32.94,0,0,0-2.27,4.39,45.08,45.08,0,0,0-1.84,5.08c-.34,1.16-2.15,1-2.62.49a5.54,5.54,0,0,1-.58-.84,4.28,4.28,0,0,1-.66-2.89c0-.29,0-.59.07-.89a23.62,23.62,0,0,1,2.93-9.64,25.08,25.08,0,0,1,3.68-5A24.67,24.67,0,0,1,26,4.23Z" transform="translate(0 22.26)"/>
              <path class="cls-66" d="M25.83,4.32a31.28,31.28,0,0,1,11,.49c1.49.33,2,2.15.59,2.41-.43.08-.89.15-1.36.22a46,46,0,0,0-9.4,2.22,30.94,30.94,0,0,0-3.05,1.27,26.91,26.91,0,0,0-5.13,3.19A24.59,24.59,0,0,0,15.33,17a26.69,26.69,0,0,0-2.89,3.87,35.29,35.29,0,0,0-2.26,4.33,46.38,46.38,0,0,0-1.83,5c-.35,1.14-2.1,1-2.57.55a6.57,6.57,0,0,1-.57-.77,3.89,3.89,0,0,1-.69-2.8c0-.29.05-.58.07-.88a23.62,23.62,0,0,1,2.92-9.54,25.07,25.07,0,0,1,7.35-8.22A24.59,24.59,0,0,1,25.83,4.32Z" transform="translate(0 22.26)"/>
              <path class="cls-45" d="M25.66,4.41a31.5,31.5,0,0,1,10.91.4c1.49.31,2,2.09.6,2.36-.43.08-.88.15-1.36.22a45.59,45.59,0,0,0-9.29,2.2,30.73,30.73,0,0,0-3,1.26A26.4,26.4,0,0,0,18.41,14a24.19,24.19,0,0,0-3.09,2.89,27.42,27.42,0,0,0-2.87,3.82A33.21,33.21,0,0,0,10.21,25a43.32,43.32,0,0,0-1.83,5c-.35,1.13-2.06,1-2.52.61a6.11,6.11,0,0,1-.56-.7,3.45,3.45,0,0,1-.72-2.7c0-.29,0-.57.08-.87a23.35,23.35,0,0,1,2.9-9.44A24.47,24.47,0,0,1,25.66,4.41Z" transform="translate(0 22.26)"/>
              <path class="cls-67" d="M25.49,4.5a31.71,31.71,0,0,1,10.86.3c1.5.3,1.94,2.05.6,2.32-.42.08-.87.15-1.34.22a46.21,46.21,0,0,0-9.2,2.18c-1.05.38-2,.79-3,1.24a26.38,26.38,0,0,0-5,3.11,25.16,25.16,0,0,0-3.07,2.85,26.75,26.75,0,0,0-2.84,3.77,32.53,32.53,0,0,0-2.24,4.23,45,45,0,0,0-1.82,4.92c-.35,1.12-2,1.06-2.47.68a3.21,3.21,0,0,1-.56-.64,2.84,2.84,0,0,1-.74-2.6c0-.28.05-.57.08-.86a23.52,23.52,0,0,1,2.89-9.34A24.91,24.91,0,0,1,11.16,12,24.21,24.21,0,0,1,25.49,4.5Z" transform="translate(0 22.26)"/>
              <path class="cls-68" d="M25.32,4.58a31.67,31.67,0,0,1,10.81.22c1.5.28,1.93,2,.6,2.27-.42.09-.86.16-1.32.22A46,46,0,0,0,26.3,9.45c-1,.38-2,.78-3,1.23a26.66,26.66,0,0,0-5,3.07,23.82,23.82,0,0,0-3,2.81,26.21,26.21,0,0,0-2.83,3.72,33.07,33.07,0,0,0-2.23,4.18,46,46,0,0,0-1.82,4.86c-.34,1.1-1.95,1.09-2.4.74a2.69,2.69,0,0,1-.56-.56c-.38-.21-.91-1-.76-2.51,0-.28,0-.56.07-.85A23.59,23.59,0,0,1,7.66,16.9,24.32,24.32,0,0,1,25.32,4.58Z" transform="translate(0 22.26)"/>
              <path class="cls-69" d="M25.15,4.67a31.88,31.88,0,0,1,10.76.13c1.5.26,1.92,1.94.6,2.22-.41.09-.84.16-1.31.23a46.2,46.2,0,0,0-9,2.14,30.75,30.75,0,0,0-2.92,1.21,26.14,26.14,0,0,0-4.95,3,24.88,24.88,0,0,0-3,2.78,26.37,26.37,0,0,0-2.81,3.67,32.31,32.31,0,0,0-2.21,4.13A43.55,43.55,0,0,0,8.46,29c-.34,1.09-1.91,1.11-2.35.81a3.07,3.07,0,0,1-.55-.5c-.38-.15-.94-.9-.79-2.41,0-.28.05-.56.08-.84a23.26,23.26,0,0,1,2.86-9.14A24.18,24.18,0,0,1,25.15,4.67Z" transform="translate(0 22.26)"/>
              <path class="cls-26" d="M25,4.76a32.09,32.09,0,0,1,10.71,0c1.51.26,1.91,1.89.6,2.18-.4.09-.83.16-1.29.23a45.71,45.71,0,0,0-8.91,2.12,29.29,29.29,0,0,0-2.9,1.2,25.59,25.59,0,0,0-4.9,3,23.52,23.52,0,0,0-3,2.73,25.69,25.69,0,0,0-2.79,3.63,30.45,30.45,0,0,0-2.21,4.08,44.53,44.53,0,0,0-1.81,4.74,1.79,1.79,0,0,1-2.3.87,3,3,0,0,1-.55-.42c-.38-.09-1-.82-.81-2.32,0-.28,0-.55.08-.83a23.49,23.49,0,0,1,2.84-9,25,25,0,0,1,3.43-4.75,24.69,24.69,0,0,1,3.49-3.11A24.29,24.29,0,0,1,25,4.76Z" transform="translate(0 22.26)"/>
              <path class="cls-70" d="M24.8,4.85a32,32,0,0,1,10.66-.06c1.52.24,1.91,1.83.61,2.13-.39.09-.82.16-1.27.23A45.68,45.68,0,0,0,26,9.25c-1,.36-2,.75-2.87,1.18a26.4,26.4,0,0,0-4.85,2.94,24.68,24.68,0,0,0-3,2.7,25.67,25.67,0,0,0-2.77,3.58,31.59,31.59,0,0,0-2.2,4,43.41,43.41,0,0,0-1.8,4.68,1.83,1.83,0,0,1-2.25.94,3.35,3.35,0,0,1-.54-.36c-.39,0-1-.73-.84-2.22,0-.27.05-.55.08-.82A23.35,23.35,0,0,1,7.8,17a24,24,0,0,1,3.39-4.7,24.71,24.71,0,0,1,3.44-3.09A24.2,24.2,0,0,1,24.8,4.85Z" transform="translate(0 22.26)"/>
              <path class="cls-71" d="M24.63,4.93a32.25,32.25,0,0,1,10.61-.14c1.52.22,1.9,1.78.62,2.08C35.47,7,35,7,34.59,7.1a45.54,45.54,0,0,0-8.72,2.09c-1,.35-1.93.74-2.83,1.16a25.92,25.92,0,0,0-4.81,2.9,23.3,23.3,0,0,0-2.94,2.66,25.3,25.3,0,0,0-2.76,3.53,30.19,30.19,0,0,0-2.18,4A40.38,40.38,0,0,0,8.55,28a1.88,1.88,0,0,1-2.19,1,3.61,3.61,0,0,1-.54-.3c-.39,0-1-.63-.87-2.12L5,25.81A23.43,23.43,0,0,1,7.85,17a24,24,0,0,1,16.78-12Z" transform="translate(0 22.26)"/>
              <path class="cls-72" d="M24.46,5A32.46,32.46,0,0,1,35,4.78c1.52.21,1.9,1.73.62,2-.38.09-.8.17-1.25.23a45.42,45.42,0,0,0-8.62,2.07A29.94,29.94,0,0,0,23,10.27a25.35,25.35,0,0,0-4.76,2.86,22.82,22.82,0,0,0-2.92,2.62,24.65,24.65,0,0,0-2.73,3.48,31.27,31.27,0,0,0-2.18,3.92,44.38,44.38,0,0,0-1.8,4.57,1.91,1.91,0,0,1-2.13,1.07,3.73,3.73,0,0,1-.54-.22c-.39.08-1.05-.55-.89-2l.09-.81A23.3,23.3,0,0,1,7.9,17a24,24,0,0,1,3.3-4.6,23.64,23.64,0,0,1,3.35-3A24.24,24.24,0,0,1,24.46,5Z" transform="translate(0 22.26)"/>
              <path class="cls-46" d="M24.29,5.11A32.39,32.39,0,0,1,34.8,4.78c1.53.19,1.89,1.67.62,2q-.57.14-1.23.24a45.25,45.25,0,0,0-8.53,2c-1,.35-1.9.72-2.78,1.14A25.62,25.62,0,0,0,18.17,13a22.34,22.34,0,0,0-2.89,2.59A24.7,24.7,0,0,0,12.56,19a30,30,0,0,0-2.16,3.87,40.53,40.53,0,0,0-1.8,4.52,2,2,0,0,1-2.08,1.13A4.38,4.38,0,0,1,6,28.38c-.4.14-1.09-.46-.92-1.93l.09-.8A23.51,23.51,0,0,1,8,17a24.43,24.43,0,0,1,3.26-4.55,23.64,23.64,0,0,1,3.3-3A24,24,0,0,1,24.29,5.11Z" transform="translate(0 22.26)"/>
              <path class="cls-73" d="M24.12,5.2a32.58,32.58,0,0,1,10.46-.43c1.53.18,1.88,1.63.62,2A12,12,0,0,1,34,7a45.34,45.34,0,0,0-8.43,2c-1,.35-1.87.72-2.74,1.12a25.39,25.39,0,0,0-4.67,2.78,23.26,23.26,0,0,0-2.87,2.54,25.59,25.59,0,0,0-2.7,3.39,30.49,30.49,0,0,0-2.15,3.82,41.44,41.44,0,0,0-1.79,4.46,2.08,2.08,0,0,1-2,1.19,4.23,4.23,0,0,1-.52-.09c-.4.2-1.12-.36-1-1.83,0-.26.06-.52.1-.79A23.07,23.07,0,0,1,8,17a23.27,23.27,0,0,1,3.21-4.51,24.35,24.35,0,0,1,3.26-3A24.07,24.07,0,0,1,24.12,5.2Z" transform="translate(0 22.26)"/>
              <path class="cls-74" d="M24,5.28a32.78,32.78,0,0,1,10.41-.51c1.53.16,1.87,1.57.62,1.9a11.05,11.05,0,0,1-1.2.24,44.82,44.82,0,0,0-8.33,2A29.1,29.1,0,0,0,22.73,10a25.69,25.69,0,0,0-4.62,2.73,23.58,23.58,0,0,0-2.84,2.51,22.93,22.93,0,0,0-2.68,3.34,29.82,29.82,0,0,0-2.15,3.77,39.18,39.18,0,0,0-1.78,4.4,2.21,2.21,0,0,1-2,1.26l-.52,0c-.4.26-1.14-.28-1-1.74l.09-.78A23.49,23.49,0,0,1,8,17.06a24.09,24.09,0,0,1,6.39-7.43A24.22,24.22,0,0,1,24,5.28Z" transform="translate(0 22.26)"/>
              <path class="cls-75" d="M23.78,5.37a32.69,32.69,0,0,1,10.36-.6c1.54.14,1.86,1.51.62,1.85a8.76,8.76,0,0,1-1.18.24,45,45,0,0,0-8.24,2,28.47,28.47,0,0,0-2.69,1.09,25.21,25.21,0,0,0-4.57,2.69,23.09,23.09,0,0,0-2.82,2.47,23.62,23.62,0,0,0-2.66,3.29,29.07,29.07,0,0,0-2.13,3.72,40.08,40.08,0,0,0-1.79,4.34,2.32,2.32,0,0,1-1.91,1.33l-.52,0c-.41.32-1.18-.19-1-1.64l.09-.77a23.56,23.56,0,0,1,5.88-12.74A22.79,22.79,0,0,1,14.4,9.72,24.18,24.18,0,0,1,23.78,5.37Z" transform="translate(0 22.26)"/>
              <path class="cls-47" d="M23.61,5.46a32.87,32.87,0,0,1,10.31-.7c1.54.13,1.85,1.47.63,1.81a10.55,10.55,0,0,1-1.18.25,45,45,0,0,0-8.14,2c-.93.33-1.81.69-2.65,1.07a25,25,0,0,0-4.53,2.66,21.7,21.7,0,0,0-2.79,2.43,23.83,23.83,0,0,0-2.65,3.24,28.38,28.38,0,0,0-2.12,3.67,41.05,41.05,0,0,0-1.78,4.28,2.47,2.47,0,0,1-1.86,1.39l-.51.11c-.41.38-1.21-.09-1-1.55,0-.25.06-.5.1-.75a23.41,23.41,0,0,1,2.72-8.24A23.59,23.59,0,0,1,23.61,5.46Z" transform="translate(0 22.26)"/>
              <path class="cls-76" d="M23.43,5.55A32.55,32.55,0,0,1,33.7,4.76c1.54.11,1.84,1.41.63,1.76a9.7,9.7,0,0,1-1.16.25,44.69,44.69,0,0,0-8,2c-.92.32-1.8.67-2.63,1A25.94,25.94,0,0,0,18,12.38a22.83,22.83,0,0,0-2.77,2.4A23.17,23.17,0,0,0,12.63,18a27.73,27.73,0,0,0-2.12,3.62,39.92,39.92,0,0,0-1.77,4.22,2.71,2.71,0,0,1-1.81,1.46,4.28,4.28,0,0,0-.51.18c-.41.43-1.23,0-1-1.46,0-.24.07-.49.1-.74a23.57,23.57,0,0,1,2.71-8.14,24.22,24.22,0,0,1,3.05-4.31,23.46,23.46,0,0,1,3.08-2.89A23.87,23.87,0,0,1,23.43,5.55Z" transform="translate(0 22.26)"/>
              <path class="cls-77" d="M23.26,5.63a33.27,33.27,0,0,1,10.21-.88c1.56.1,1.84,1.36.64,1.72A9.76,9.76,0,0,1,33,6.72,45.41,45.41,0,0,0,25,8.65c-.91.32-1.77.66-2.6,1A25.07,25.07,0,0,0,18,12.26a21.41,21.41,0,0,0-2.74,2.36,22.65,22.65,0,0,0-2.61,3.14,27.55,27.55,0,0,0-2.1,3.56,37.86,37.86,0,0,0-1.77,4.17A2.92,2.92,0,0,1,7,27a2.33,2.33,0,0,0-.5.25c-.49.42-1.27.08-1.07-1.36,0-.24.07-.49.1-.74a23.47,23.47,0,0,1,2.7-8,23.14,23.14,0,0,1,3-4.26,22.9,22.9,0,0,1,3-2.87A24.05,24.05,0,0,1,23.26,5.63Z" transform="translate(0 22.26)"/>
              <path class="cls-78" d="M23.09,5.72a32.84,32.84,0,0,1,10.16-1c1.56.08,1.84,1.31.64,1.67a7.62,7.62,0,0,1-1.13.25,45.6,45.6,0,0,0-7.85,1.91c-.9.32-1.75.66-2.56,1A24.22,24.22,0,0,0,18,12.14a21.67,21.67,0,0,0-2.72,2.31,22.76,22.76,0,0,0-2.59,3.1,28.77,28.77,0,0,0-2.09,3.51A36.8,36.8,0,0,0,8.8,25.17a3.29,3.29,0,0,1-1.71,1.59,2.76,2.76,0,0,0-.49.31c-.49.5-1.3.18-1.1-1.26,0-.24.07-.48.11-.73a23.84,23.84,0,0,1,2.67-7.93,23.5,23.5,0,0,1,6-7.06A24,24,0,0,1,23.09,5.72Z" transform="translate(0 22.26)"/>
              <path class="cls-33" d="M22.92,5.81A32.7,32.7,0,0,1,33,4.75c1.56.06,1.83,1.25.64,1.62a6.09,6.09,0,0,1-1.11.25A45.71,45.71,0,0,0,24.8,8.51c-.88.31-1.73.65-2.53,1A25.23,25.23,0,0,0,17.93,12a22.9,22.9,0,0,0-2.7,2.28,22.11,22.11,0,0,0-2.56,3.05,27.38,27.38,0,0,0-2.09,3.46,39,39,0,0,0-1.76,4.06,3.74,3.74,0,0,1-1.64,1.65,2.19,2.19,0,0,0-.5.38c-.48.56-1.33.26-1.12-1.17,0-.24.07-.48.11-.72a23.54,23.54,0,0,1,5.59-12,23,23,0,0,1,2.94-2.81A23.81,23.81,0,0,1,22.92,5.81Z" transform="translate(0 22.26)"/>
              <path class="cls-79" d="M22.75,5.9A34.13,34.13,0,0,1,32.81,4.74c1.57,0,1.82,1.2.65,1.58a7.13,7.13,0,0,1-1.1.26A44.3,44.3,0,0,0,24.7,8.45c-.88.3-1.71.63-2.51,1a24.62,24.62,0,0,0-4.29,2.45,20.69,20.69,0,0,0-2.67,2.24,23,23,0,0,0-2.55,3,26.64,26.64,0,0,0-2.07,3.41,39.8,39.8,0,0,0-1.76,4,4.23,4.23,0,0,1-1.59,1.71,3,3,0,0,0-.49.45c-.48.63-1.36.35-1.14-1.07,0-.23.07-.47.1-.71a24,24,0,0,1,2.65-7.73,23.69,23.69,0,0,1,5.78-6.91A23.93,23.93,0,0,1,22.75,5.9Z" transform="translate(0 22.26)"/>
              <path class="cls-80" d="M22.58,6a33,33,0,0,1,10-1.24c1.57,0,1.81,1.15.65,1.53a6.73,6.73,0,0,1-1.09.26,44.51,44.51,0,0,0-7.56,1.85c-.87.3-1.69.63-2.47,1a24.73,24.73,0,0,0-4.25,2.4A21.86,21.86,0,0,0,15.22,14a22.46,22.46,0,0,0-2.53,3,27.88,27.88,0,0,0-2.06,3.36,36.56,36.56,0,0,0-1.75,3.94A5,5,0,0,1,7.34,26a3.33,3.33,0,0,0-.48.52c-.48.69-1.39.44-1.17-1,0-.23.07-.46.11-.7a23.61,23.61,0,0,1,2.63-7.63,23.51,23.51,0,0,1,5.69-6.84A24.15,24.15,0,0,1,22.58,6Z" transform="translate(0 22.26)"/>
              <path class="cls-81" d="M22.41,6.07a33.1,33.1,0,0,1,10-1.34c1.57,0,1.8,1.1.65,1.49A6.46,6.46,0,0,1,32,6.48a45.64,45.64,0,0,0-7.47,1.83c-.85.3-1.67.62-2.44,1a24.5,24.5,0,0,0-4.2,2.36,20.54,20.54,0,0,0-2.62,2.17,21.77,21.77,0,0,0-2.51,2.9A26,26,0,0,0,10.66,20,35.51,35.51,0,0,0,8.91,23.9a5.71,5.71,0,0,1-1.49,1.84,5.17,5.17,0,0,0-.48.59c-.47.76-1.42.53-1.19-.88,0-.23.07-.46.11-.69a23.85,23.85,0,0,1,2.62-7.53,23.18,23.18,0,0,1,5.61-6.77A23.82,23.82,0,0,1,22.41,6.07Z" transform="translate(0 22.26)"/>
              <path class="cls-48" d="M22.24,6.16a32.6,32.6,0,0,1,9.91-1.43c1.57,0,1.79,1,.65,1.44a5.37,5.37,0,0,1-1,.26,44.37,44.37,0,0,0-7.37,1.82c-.85.29-1.65.6-2.42.94a23.91,23.91,0,0,0-4.15,2.33,21.63,21.63,0,0,0-2.6,2.12,21.91,21.91,0,0,0-2.49,2.86,25.3,25.3,0,0,0-2,3.26,36.41,36.41,0,0,0-1.75,3.82A6.82,6.82,0,0,1,7.5,25.49a4.87,4.87,0,0,0-.47.65c-.48.82-1.45.62-1.22-.78,0-.23.07-.45.11-.68a24,24,0,0,1,2.61-7.43,23.43,23.43,0,0,1,5.52-6.7A23.87,23.87,0,0,1,22.24,6.16Z" transform="translate(0 22.26)"/>
              <path class="cls-82" d="M22.06,6.25a32.47,32.47,0,0,1,9.87-1.52c1.58,0,1.78,1,.65,1.39a5.79,5.79,0,0,1-1,.27,44.43,44.43,0,0,0-7.27,1.79c-.84.29-1.63.6-2.38.93a24.74,24.74,0,0,0-4.11,2.28,21.09,21.09,0,0,0-2.57,2.09,21.4,21.4,0,0,0-2.48,2.81,25.75,25.75,0,0,0-2,3.21A37.39,37.39,0,0,0,9,23.26a8.84,8.84,0,0,1-1.37,2,5,5,0,0,0-.47.72c-.48.88-1.48.7-1.25-.69L6,24.6a24.27,24.27,0,0,1,2.58-7.33,24,24,0,0,1,2.72-3.93A23.05,23.05,0,0,1,14,10.65,23.92,23.92,0,0,1,22.06,6.25Z" transform="translate(0 22.26)"/>
              <path class="cls-83" d="M21.89,6.33a32.57,32.57,0,0,1,9.82-1.61c1.58,0,1.77.94.65,1.36a6.26,6.26,0,0,1-1,.26,44.61,44.61,0,0,0-7.18,1.77c-.82.29-1.61.59-2.35.92a24.51,24.51,0,0,0-4.06,2.24,20.78,20.78,0,0,0-5,4.81,24.55,24.55,0,0,0-2,3.15A35.34,35.34,0,0,0,9,22.94a12.23,12.23,0,0,1-1.32,2,9.12,9.12,0,0,0-.47.79c-.47.94-1.51.8-1.27-.59l.12-.66a24.21,24.21,0,0,1,2.57-7.23,23.73,23.73,0,0,1,2.68-3.88A22.44,22.44,0,0,1,14,10.74,24.12,24.12,0,0,1,21.89,6.33Z" transform="translate(0 22.26)"/>
              <path class="cls-84" d="M21.72,6.42a32.6,32.6,0,0,1,9.76-1.7c1.59,0,1.77.88.67,1.31a6.4,6.4,0,0,1-1,.26A46.67,46.67,0,0,0,24.06,8c-.82.28-1.59.58-2.33.91a23.85,23.85,0,0,0-4,2.19,20.08,20.08,0,0,0-2.52,2,21,21,0,0,0-2.44,2.71,25,25,0,0,0-2,3.1A34.25,34.25,0,0,0,9,22.62a16.54,16.54,0,0,1-1.27,2.11c-.16.28-.32.56-.46.85-.47,1-1.54.89-1.3-.49l.12-.66a24.58,24.58,0,0,1,2.56-7.12,23.6,23.6,0,0,1,2.64-3.84,23.31,23.31,0,0,1,2.62-2.64A24,24,0,0,1,21.72,6.42Z" transform="translate(0 22.26)"/>
              <path class="cls-49" d="M21.55,6.51a32.06,32.06,0,0,1,9.71-1.79c1.6-.06,1.76.82.67,1.26a5.35,5.35,0,0,1-1,.26A45.88,45.88,0,0,0,24,8c-.8.27-1.57.57-2.3.88a25.18,25.18,0,0,0-4,2.16,21.34,21.34,0,0,0-2.5,2,21.12,21.12,0,0,0-2.42,2.66,25.48,25.48,0,0,0-2,3.05A36.2,36.2,0,0,0,9.05,22.3a24.76,24.76,0,0,1-1.22,2.17q-.24.45-.45.93c-.47,1.06-1.58,1-1.33-.4,0-.22.08-.43.13-.65a24.82,24.82,0,0,1,2.54-7,23.52,23.52,0,0,1,2.59-3.79,22.78,22.78,0,0,1,2.58-2.62A24,24,0,0,1,21.55,6.51Z" transform="translate(0 22.26)"/>
              <path class="cls-85" d="M21.38,6.6A31.46,31.46,0,0,1,31,4.71c1.6-.08,1.75.77.67,1.22a5.9,5.9,0,0,1-1,.27,45.92,45.92,0,0,0-6.89,1.71c-.79.27-1.54.56-2.26.87a23.85,23.85,0,0,0-3.92,2.12,20.18,20.18,0,0,0-4.87,4.55,23.29,23.29,0,0,0-2,3A34.26,34.26,0,0,0,9.07,22c-.34.81-.81,1.52-1.15,2.23-.16.32-.32.65-.46,1-.47,1.13-1.6,1.07-1.34-.3l.12-.64a24.91,24.91,0,0,1,2.53-6.92,22.87,22.87,0,0,1,2.55-3.74A23.85,23.85,0,0,1,13.85,11,24.13,24.13,0,0,1,21.38,6.6Z" transform="translate(0 22.26)"/>
              <path class="cls-86" d="M21.21,6.68a31.51,31.51,0,0,1,9.61-2c1.6-.1,1.75.71.67,1.17a4.65,4.65,0,0,1-1,.27,46.25,46.25,0,0,0-6.8,1.69c-.78.27-1.52.55-2.23.86a24,24,0,0,0-3.87,2.07,21.28,21.28,0,0,0-2.45,1.9,20,20,0,0,0-2.38,2.57,24.08,24.08,0,0,0-2,3A33.15,33.15,0,0,0,9.1,21.67c-.34.8-.77,1.54-1.1,2.3q-.24.51-.45,1.05c-.47,1.19-1.64,1.16-1.37-.2l.12-.63a25.22,25.22,0,0,1,2.52-6.82,23.39,23.39,0,0,1,2.51-3.7,23.09,23.09,0,0,1,2.49-2.56A23.84,23.84,0,0,1,21.21,6.68Z" transform="translate(0 22.26)"/>
              <path class="cls-87" d="M21,6.77A31.54,31.54,0,0,1,30.6,4.7c1.6-.1,1.74.66.67,1.13a4.37,4.37,0,0,1-.95.27,45,45,0,0,0-6.69,1.68c-.77.26-1.51.54-2.21.84a24.15,24.15,0,0,0-3.82,2A20.27,20.27,0,0,0,12.81,15a23.35,23.35,0,0,0-2,2.9,32.09,32.09,0,0,0-1.72,3.42c-.35.79-.73,1.56-1.05,2.36-.15.37-.3.74-.44,1.13-.47,1.24-1.67,1.24-1.4-.11,0-.21.08-.41.13-.62a25.17,25.17,0,0,1,2.49-6.72,24.63,24.63,0,0,1,2.47-3.65,22.56,22.56,0,0,1,2.45-2.54A23.94,23.94,0,0,1,21,6.77Z" transform="translate(0 22.26)"/>
              <path class="cls-40" d="M6.3,24.64a25.76,25.76,0,0,1,2.61-7.23,23.35,23.35,0,0,1,4.83-6.12,24.32,24.32,0,0,1,7.13-4.43A31.2,31.2,0,0,1,30.38,4.7c2-.15,1.7,1-.26,1.35a41.63,41.63,0,0,0-8.77,2.48,22.42,22.42,0,0,0-6.18,3.82,21.33,21.33,0,0,0-4.3,5.32,41.12,41.12,0,0,0-3.15,7C7.26,26,6,26,6.3,24.64Z" transform="translate(0 22.26)"/>
            </g>
          </g>
        </g>
      </g>
    </g>
  </g>
</svg>
