<svg xmlns="http://www.w3.org/2000/svg" xmlns:xlink="http://www.w3.org/1999/xlink" viewBox="0 0 81.68 87.61">
  <defs>
    <style>
      .cls-1 {
        fill: none;
      }

      .cls-2 {
        isolation: isolate;
      }

      .cls-3 {
        opacity: 0.53;
        mix-blend-mode: multiply;
        fill: url(#radial-gradient);
      }

      .cls-4 {
        fill: #0048ba;
      }

      .cls-5 {
        clip-path: url(#clip-path);
      }

      .cls-100, .cls-101, .cls-102, .cls-103, .cls-104, .cls-105, .cls-106, .cls-107, .cls-108, .cls-109, .cls-110, .cls-111, .cls-112, .cls-113, .cls-114, .cls-115, .cls-116, .cls-117, .cls-118, .cls-119, .cls-120, .cls-121, .cls-122, .cls-123, .cls-124, .cls-126, .cls-127, .cls-128, .cls-129, .cls-130, .cls-131, .cls-132, .cls-133, .cls-134, .cls-135, .cls-136, .cls-137, .cls-138, .cls-139, .cls-140, .cls-141, .cls-142, .cls-143, .cls-144, .cls-145, .cls-146, .cls-147, .cls-148, .cls-149, .cls-150, .cls-151, .cls-152, .cls-153, .cls-154, .cls-155, .cls-156, .cls-157, .cls-158, .cls-159, .cls-160, .cls-161, .cls-6, .cls-87, .cls-88, .cls-89, .cls-90, .cls-91, .cls-92, .cls-93, .cls-94, .cls-95, .cls-96, .cls-97, .cls-98, .cls-99 {
        fill: #fff;
      }

      .cls-7 {
        fill: #ea1e14;
      }

      .cls-8 {
        clip-path: url(#clip-path-2);
      }

      .cls-9 {
        fill: #ff4828;
      }

      .cls-10 {
        fill: #ff4728;
      }

      .cls-11 {
        fill: #fe4727;
      }

      .cls-12 {
        fill: #fe4627;
      }

      .cls-13 {
        fill: #fe4527;
      }

      .cls-14 {
        fill: #fd4526;
      }

      .cls-15 {
        fill: #fd4426;
      }

      .cls-16 {
        fill: #fd4326;
      }

      .cls-17 {
        fill: #fc4325;
      }

      .cls-18 {
        fill: #fc4225;
      }

      .cls-19 {
        fill: #fc4125;
      }

      .cls-20 {
        fill: #fb4125;
      }

      .cls-21 {
        fill: #fb4024;
      }

      .cls-22 {
        fill: #fb3f24;
      }

      .cls-23 {
        fill: #fa3e23;
      }

      .cls-24 {
        fill: #f93d23;
      }

      .cls-25 {
        fill: #f93c22;
      }

      .cls-26 {
        fill: #f93b22;
      }

      .cls-27 {
        fill: #f83a22;
      }

      .cls-28 {
        fill: #f83921;
      }

      .cls-29 {
        fill: #f73921;
      }

      .cls-30 {
        fill: #f73820;
      }

      .cls-31 {
        fill: #f63720;
      }

      .cls-32 {
        fill: #f6361f;
      }

      .cls-33 {
        fill: #f5351f;
      }

      .cls-34 {
        fill: #f5341e;
      }

      .cls-35 {
        fill: #f4331e;
      }

      .cls-36 {
        fill: #f4321d;
      }

      .cls-37 {
        fill: #f3311d;
      }

      .cls-38 {
        fill: #f3301c;
      }

      .cls-39 {
        fill: #f22e1c;
      }

      .cls-40 {
        fill: #f22d1b;
      }

      .cls-41 {
        fill: #f12c1b;
      }

      .cls-42 {
        fill: #f12b1a;
      }

      .cls-43 {
        fill: #f02a1a;
      }

      .cls-44 {
        fill: #ef2919;
      }

      .cls-45 {
        fill: #ef2719;
      }

      .cls-46 {
        fill: #ee2618;
      }

      .cls-47 {
        fill: #ed2517;
      }

      .cls-48 {
        fill: #ed2417;
      }

      .cls-49 {
        fill: #ec2216;
      }

      .cls-50 {
        fill: #ec2116;
      }

      .cls-51 {
        fill: #eb2015;
      }

      .cls-52 {
        fill: #ea1d14;
      }

      .cls-53 {
        fill: #e91c13;
      }

      .cls-54 {
        fill: #e81a12;
      }

      .cls-55 {
        fill: #e71912;
      }

      .cls-56 {
        fill: #e71711;
      }

      .cls-57 {
        fill: #e61610;
      }

      .cls-58 {
        fill: #e51510;
      }

      .cls-59 {
        fill: #e5130f;
      }

      .cls-60 {
        fill: #e4120e;
      }

      .cls-61 {
        fill: #e3100e;
      }

      .cls-62 {
        fill: #e20e0d;
      }

      .cls-63 {
        fill: #e10d0c;
      }

      .cls-64 {
        fill: #e10b0b;
      }

      .cls-65 {
        fill: #e00a0b;
      }

      .cls-66 {
        fill: #df080a;
      }

      .cls-67 {
        fill: #de0709;
      }

      .cls-68 {
        fill: #dd0508;
      }

      .cls-69 {
        fill: #dd0308;
      }

      .cls-70 {
        fill: #dc0207;
      }

      .cls-71 {
        fill: #db0006;
      }

      .cls-72 {
        fill: #da0006;
      }

      .cls-73 {
        fill: #d90005;
      }

      .cls-74 {
        fill: #d80005;
      }

      .cls-75 {
        fill: #d70004;
      }

      .cls-76 {
        fill: #d60004;
      }

      .cls-77 {
        fill: #d50004;
      }

      .cls-78 {
        fill: #d40003;
      }

      .cls-79 {
        fill: #d30003;
      }

      .cls-80 {
        fill: #d10002;
      }

      .cls-81 {
        fill: #d00002;
      }

      .cls-82 {
        fill: #cf0001;
      }

      .cls-83 {
        fill: #ce0001;
      }

      .cls-84 {
        fill: url(#linear-gradient);
      }

      .cls-124, .cls-125, .cls-85 {
        opacity: 0.3;
      }

      .cls-85 {
        mix-blend-mode: screen;
        fill: url(#radial-gradient-2);
      }

      .cls-86 {
        opacity: 0.15;
      }

      .cls-87 {
        opacity: 0;
      }

      .cls-88 {
        opacity: 0.04;
      }

      .cls-89 {
        opacity: 0.07;
      }

      .cls-90 {
        opacity: 0.11;
      }

      .cls-91 {
        opacity: 0.14;
      }

      .cls-92 {
        opacity: 0.18;
      }

      .cls-93 {
        opacity: 0.21;
      }

      .cls-94 {
        opacity: 0.25;
      }

      .cls-95 {
        opacity: 0.29;
      }

      .cls-96 {
        opacity: 0.32;
      }

      .cls-97 {
        opacity: 0.36;
      }

      .cls-98 {
        opacity: 0.39;
      }

      .cls-99 {
        opacity: 0.43;
      }

      .cls-100 {
        opacity: 0.46;
      }

      .cls-101 {
        opacity: 0.5;
      }

      .cls-102 {
        opacity: 0.54;
      }

      .cls-103 {
        opacity: 0.57;
      }

      .cls-104 {
        opacity: 0.61;
      }

      .cls-105 {
        opacity: 0.64;
      }

      .cls-106 {
        opacity: 0.68;
      }

      .cls-107 {
        opacity: 0.71;
      }

      .cls-108 {
        opacity: 0.75;
      }

      .cls-109 {
        opacity: 0.79;
      }

      .cls-110 {
        opacity: 0.82;
      }

      .cls-111 {
        opacity: 0.86;
      }

      .cls-112 {
        opacity: 0.89;
      }

      .cls-113 {
        opacity: 0.93;
      }

      .cls-114 {
        opacity: 0.96;
      }

      .cls-115 {
        opacity: 0.12;
      }

      .cls-116 {
        opacity: 0.08;
      }

      .cls-117 {
        opacity: 0.17;
      }

      .cls-118 {
        opacity: 0.33;
      }

      .cls-119 {
        opacity: 0.42;
      }

      .cls-120 {
        opacity: 0.58;
      }

      .cls-121 {
        opacity: 0.67;
      }

      .cls-122 {
        opacity: 0.83;
      }

      .cls-123 {
        opacity: 0.92;
      }

      .cls-126 {
        opacity: 0.02;
      }

      .cls-127 {
        opacity: 0.04;
      }

      .cls-128 {
        opacity: 0.06;
      }

      .cls-129 {
        opacity: 0.1;
      }

      .cls-130 {
        opacity: 0.13;
      }

      .cls-131 {
        opacity: 0.15;
      }

      .cls-132 {
        opacity: 0.19;
      }

      .cls-133 {
        opacity: 0.21;
      }

      .cls-134 {
        opacity: 0.23;
      }

      .cls-135 {
        opacity: 0.27;
      }

      .cls-136 {
        opacity: 0.29;
      }

      .cls-137 {
        opacity: 0.31;
      }

      .cls-138 {
        opacity: 0.35;
      }

      .cls-139 {
        opacity: 0.38;
      }

      .cls-140 {
        opacity: 0.4;
      }

      .cls-141 {
        opacity: 0.44;
      }

      .cls-142 {
        opacity: 0.46;
      }

      .cls-143 {
        opacity: 0.48;
      }

      .cls-144 {
        opacity: 0.52;
      }

      .cls-145 {
        opacity: 0.54;
      }

      .cls-146 {
        opacity: 0.56;
      }

      .cls-147 {
        opacity: 0.6;
      }

      .cls-148 {
        opacity: 0.63;
      }

      .cls-149 {
        opacity: 0.65;
      }

      .cls-150 {
        opacity: 0.69;
      }

      .cls-151 {
        opacity: 0.71;
      }

      .cls-152 {
        opacity: 0.73;
      }

      .cls-153 {
        opacity: 0.77;
      }

      .cls-154 {
        opacity: 0.79;
      }

      .cls-155 {
        opacity: 0.81;
      }

      .cls-156 {
        opacity: 0.85;
      }

      .cls-157 {
        opacity: 0.88;
      }

      .cls-158 {
        opacity: 0.9;
      }

      .cls-159 {
        opacity: 0.94;
      }

      .cls-160 {
        opacity: 0.96;
      }

      .cls-161 {
        opacity: 0.98;
      }
    </style>
    <radialGradient id="radial-gradient" cx="-1078.31" cy="155.05" r="402.89" gradientTransform="matrix(0, 0.08, -0.08, 0, 44.64, 116.98)" gradientUnits="userSpaceOnUse">
      <stop offset="0.86" stop-color="#1b1447"/>
      <stop offset="0.88" stop-color="#504b72"/>
      <stop offset="0.89" stop-color="#85819d"/>
      <stop offset="0.91" stop-color="#b1aec0"/>
      <stop offset="0.93" stop-color="#d3d1db"/>
      <stop offset="0.95" stop-color="#ebebef"/>
      <stop offset="0.96" stop-color="#fafafb"/>
      <stop offset="0.97" stop-color="#fff"/>
    </radialGradient>
    <clipPath id="clip-path" transform="translate(1.49 18.99)">
      <path class="cls-1" d="M25.63,58.76a28.42,28.42,0,1,1,33.66-22A28.43,28.43,0,0,1,25.63,58.76Z"/>
    </clipPath>
    <clipPath id="clip-path-2" transform="translate(1.49 18.99)">
      <polygon class="cls-1" points="72.36 26.8 35.15 26.8 35.15 1.29 27.66 1.29 27.66 26.8 1.14 26.8 1.14 34.29 27.66 34.29 27.66 61.48 35.15 61.48 35.15 34.29 72.36 34.29 72.36 26.8"/>
    </clipPath>
    <linearGradient id="linear-gradient" x1="-0.24" y1="31.39" x2="73.25" y2="31.39" gradientUnits="userSpaceOnUse">
      <stop offset="0" stop-color="#fffaf7"/>
      <stop offset="0.58" stop-color="#fafaf7"/>
      <stop offset="1" stop-color="#ebe1de"/>
    </linearGradient>
    <radialGradient id="radial-gradient-2" cx="4597.6" cy="5481.35" r="7.97" gradientTransform="matrix(-4.35, -0.01, 0.1, -4.5, 19525.84, 24746.6)" gradientUnits="userSpaceOnUse">
      <stop offset="0.12" stop-color="#ffbcc4"/>
      <stop offset="0.2" stop-color="#f7b6be"/>
      <stop offset="0.32" stop-color="#e0a5ad"/>
      <stop offset="0.46" stop-color="#ba8991"/>
      <stop offset="0.63" stop-color="#86636a"/>
      <stop offset="0.82" stop-color="#453339"/>
      <stop offset="1" stop-color="#000005"/>
    </radialGradient>
  </defs>
  <g class="cls-2">
    <g id="Calque_2" data-name="Calque 2">
      <g id="Layer_1" data-name="Layer 1">
        <g>
          <path class="cls-3" d="M32.11,63.63A31.82,31.82,0,1,1,31.9,0a31.82,31.82,0,1,1,.21,63.63Z" transform="translate(1.49 18.99)"/>
          <circle class="cls-4" cx="31.48" cy="30.95" r="28.42" transform="translate(-8.71 64.5) rotate(-63.76)"/>
          <g class="cls-5">
            <g>
              <rect class="cls-6" x="13.56" y="-0.78" width="4.75" height="35.12" transform="translate(-5.72 35.72) rotate(-46.34)"/>
              <rect class="cls-7" x="14.67" y="1.3" width="1.78" height="32.15" transform="translate(-6.26 35.63) rotate(-46.34)"/>
            </g>
            <g>
              <rect class="cls-6" x="29.64" y="15.2" width="35.12" height="4.75" transform="translate(2.41 56.45) rotate(-43.66)"/>
              <rect class="cls-7" x="30.76" y="16.09" width="32.15" height="1.78" transform="translate(2.72 56.03) rotate(-43.66)"/>
            </g>
            <g>
              <rect class="cls-6" x="45.92" y="28.12" width="4.75" height="35.12" transform="translate(-16.6 68.07) rotate(-46.34)"/>
              <rect class="cls-7" x="47.77" y="29.01" width="1.78" height="32.15" transform="translate(-16.06 68.15) rotate(-46.34)"/>
            </g>
            <g>
              <rect class="cls-6" x="-3.95" y="42.51" width="35.12" height="4.75" transform="translate(-25.73 40.81) rotate(-43.66)"/>
              <rect class="cls-7" x="-2.09" y="44.59" width="32.15" height="1.78" transform="translate(-26.04 41.23) rotate(-43.66)"/>
            </g>
            <g class="cls-8">
              <polygon class="cls-9" points="81.69 42.38 46.1 13.15 81.69 13.15 81.69 42.38"/>
              <polygon class="cls-9" points="81.69 43.21 45.1 13.15 46.1 13.15 81.69 42.38 81.69 43.21"/>
              <polygon class="cls-9" points="81.69 44.04 44.09 13.15 45.1 13.15 81.69 43.21 81.69 44.04"/>
              <polygon class="cls-9" points="81.69 44.86 43.09 13.15 44.09 13.15 81.69 44.04 81.69 44.86"/>
              <polygon class="cls-9" points="81.69 45.69 42.08 13.15 43.09 13.15 81.69 44.86 81.69 45.69"/>
              <polygon class="cls-10" points="81.69 46.51 41.08 13.15 42.08 13.15 81.69 45.69 81.69 46.51"/>
              <polygon class="cls-10" points="81.69 47.34 40.07 13.15 41.08 13.15 81.69 46.51 81.69 47.34"/>
              <polygon class="cls-11" points="81.69 48.16 39.07 13.15 40.07 13.15 81.69 47.34 81.69 48.16"/>
              <polygon class="cls-12" points="81.69 48.99 38.06 13.15 39.07 13.15 81.69 48.16 81.69 48.99"/>
              <polygon class="cls-12" points="81.69 49.82 37.06 13.15 38.06 13.15 81.69 48.99 81.69 49.82"/>
              <polygon class="cls-12" points="81.69 50.64 36.05 13.15 37.06 13.15 81.69 49.82 81.69 50.64"/>
              <polygon class="cls-13" points="81.69 51.47 35.05 13.15 36.05 13.15 81.69 50.64 81.69 51.47"/>
              <polygon class="cls-14" points="81.69 51.94 81.51 52.15 34.05 13.15 35.05 13.15 81.69 51.47 81.69 51.94"/>
              <polygon class="cls-15" points="81.51 52.15 81.11 52.64 33.04 13.15 34.05 13.15 81.51 52.15"/>
              <polygon class="cls-15" points="81.11 52.64 80.7 53.14 32.04 13.15 33.04 13.15 81.11 52.64"/>
              <polygon class="cls-16" points="80.7 53.14 80.3 53.63 31.03 13.15 32.04 13.15 80.7 53.14"/>
              <polygon class="cls-17" points="80.3 53.63 79.89 54.12 30.03 13.15 31.03 13.15 80.3 53.63"/>
              <polygon class="cls-18" points="79.89 54.12 79.49 54.61 29.02 13.15 30.03 13.15 79.89 54.12"/>
              <polygon class="cls-19" points="79.49 54.61 79.08 55.11 28.02 13.15 29.02 13.15 79.49 54.61"/>
              <polygon class="cls-20" points="79.08 55.11 78.68 55.6 27.01 13.15 28.02 13.15 79.08 55.11"/>
              <polygon class="cls-21" points="78.68 55.6 78.27 56.09 26.01 13.15 27.01 13.15 78.68 55.6"/>
              <polygon class="cls-22" points="78.27 56.09 77.87 56.59 25 13.15 26.01 13.15 78.27 56.09"/>
              <polygon class="cls-23" points="77.87 56.59 77.46 57.08 24 13.15 25 13.15 77.87 56.59"/>
              <polygon class="cls-23" points="77.46 57.08 77.06 57.57 22.99 13.15 24 13.15 77.46 57.08"/>
              <polygon class="cls-24" points="77.06 57.57 76.65 58.06 21.99 13.15 22.99 13.15 77.06 57.57"/>
              <polygon class="cls-25" points="76.65 58.06 76.25 58.56 20.98 13.15 21.99 13.15 76.65 58.06"/>
              <polygon class="cls-26" points="76.25 58.56 75.84 59.05 20.27 13.38 20.46 13.15 20.98 13.15 76.25 58.56"/>
              <rect class="cls-27" x="46.04" y="-18.5" width="0.64" height="71.93" transform="translate(4.93 61.2) rotate(-50.61)"/>
              <rect class="cls-28" x="45.64" y="-18" width="0.64" height="71.93" transform="translate(4.39 61.05) rotate(-50.57)"/>
              <rect class="cls-29" x="45.23" y="-17.51" width="0.64" height="71.93" transform="translate(3.86 60.91) rotate(-50.57)"/>
              <rect class="cls-30" x="44.82" y="-17.02" width="0.64" height="71.93" transform="translate(3.34 60.81) rotate(-50.61)"/>
              <rect class="cls-31" x="44.42" y="-16.52" width="0.64" height="71.93" transform="translate(2.8 60.65) rotate(-50.57)"/>
              <rect class="cls-32" x="44.01" y="-16.03" width="0.64" height="71.93" transform="translate(2.29 60.54) rotate(-50.61)"/>
              <rect class="cls-33" x="43.61" y="-15.54" width="0.64" height="71.93" transform="translate(1.74 60.38) rotate(-50.57)"/>
              <rect class="cls-34" x="43.21" y="-15.05" width="0.64" height="71.93" transform="translate(1.22 60.25) rotate(-50.57)"/>
              <rect class="cls-35" x="42.8" y="-14.55" width="0.64" height="71.93" transform="translate(0.7 60.14) rotate(-50.61)"/>
              <rect class="cls-36" x="42.4" y="-14.06" width="0.64" height="71.93" transform="translate(0.16 59.98) rotate(-50.57)"/>
              <rect class="cls-37" x="41.99" y="-13.57" width="0.64" height="71.93" transform="translate(-0.36 59.88) rotate(-50.61)"/>
              <rect class="cls-38" x="41.59" y="-13.07" width="0.64" height="71.93" transform="matrix(0.64, -0.77, 0.77, 0.64, -0.9, 59.72)"/>
              <rect class="cls-39" x="41.18" y="-12.58" width="0.64" height="71.93" transform="translate(-1.43 59.58) rotate(-50.57)"/>
              <rect class="cls-40" x="40.78" y="-12.09" width="0.64" height="71.93" transform="translate(-1.95 59.48) rotate(-50.61)"/>
              <rect class="cls-41" x="40.37" y="-11.6" width="0.64" height="71.93" transform="translate(-2.48 59.32) rotate(-50.57)"/>
              <rect class="cls-42" x="39.97" y="-11.1" width="0.64" height="71.93" transform="translate(-3 59.21) rotate(-50.61)"/>
              <rect class="cls-43" x="39.56" y="-10.61" width="0.64" height="71.93" transform="matrix(0.64, -0.77, 0.77, 0.64, -3.54, 59.05)"/>
              <rect class="cls-44" x="39.16" y="-10.12" width="0.64" height="71.93" transform="translate(-4.07 58.92) rotate(-50.57)"/>
              <rect class="cls-45" x="38.75" y="-9.62" width="0.64" height="71.93" transform="translate(-4.59 58.81) rotate(-50.61)"/>
              <rect class="cls-46" x="38.35" y="-9.13" width="0.64" height="71.93" transform="matrix(0.64, -0.77, 0.77, 0.64, -5.13, 58.65)"/>
              <rect class="cls-47" x="37.94" y="-8.64" width="0.64" height="71.93" transform="translate(-5.65 58.55) rotate(-50.61)"/>
              <rect class="cls-48" x="37.54" y="-8.15" width="0.64" height="71.93" transform="translate(-6.17 58.42) rotate(-50.62)"/>
              <rect class="cls-49" x="37.13" y="-7.65" width="0.64" height="71.93" transform="translate(-6.7 58.28) rotate(-50.61)"/>
              <rect class="cls-50" x="36.73" y="-7.16" width="0.64" height="71.93" transform="translate(-7.24 58.12) rotate(-50.57)"/>
              <rect class="cls-51" x="36.32" y="-6.67" width="0.64" height="71.93" transform="translate(-7.77 57.99) rotate(-50.57)"/>
              <rect class="cls-7" x="35.92" y="-6.17" width="0.64" height="71.93" transform="translate(-8.29 57.88) rotate(-50.61)"/>
              <rect class="cls-52" x="35.51" y="-5.68" width="0.64" height="71.93" transform="matrix(0.64, -0.77, 0.77, 0.64, -8.83, 57.72)"/>
              <rect class="cls-53" x="35.11" y="-5.19" width="0.64" height="71.93" transform="translate(-9.35 57.62) rotate(-50.61)"/>
              <rect class="cls-54" x="34.7" y="-4.7" width="0.64" height="71.93" transform="translate(-9.88 57.46) rotate(-50.57)"/>
              <rect class="cls-55" x="34.3" y="-4.2" width="0.64" height="71.93" transform="matrix(0.64, -0.77, 0.77, 0.64, -10.41, 57.32)"/>
              <rect class="cls-56" x="33.89" y="-3.71" width="0.64" height="71.93" transform="translate(-10.94 57.22) rotate(-50.61)"/>
              <rect class="cls-57" x="33.49" y="-3.22" width="0.64" height="71.93" transform="translate(-11.47 57.06) rotate(-50.57)"/>
              <rect class="cls-58" x="33.08" y="-2.73" width="0.64" height="71.93" transform="translate(-11.99 56.95) rotate(-50.61)"/>
              <rect class="cls-59" x="32.68" y="-2.23" width="0.64" height="71.93" transform="translate(-12.52 56.79) rotate(-50.57)"/>
              <rect class="cls-60" x="32.27" y="-1.74" width="0.64" height="71.93" transform="translate(-13.05 56.66) rotate(-50.57)"/>
              <rect class="cls-61" x="31.87" y="-1.25" width="0.64" height="71.93" transform="translate(-13.58 56.55) rotate(-50.61)"/>
              <rect class="cls-62" x="31.46" y="-0.75" width="0.64" height="71.93" transform="translate(-14.11 56.39) rotate(-50.57)"/>
              <rect class="cls-63" x="31.06" y="-0.26" width="0.64" height="71.93" transform="translate(-14.64 56.29) rotate(-50.61)"/>
              <rect class="cls-64" x="30.65" y="0.23" width="0.64" height="71.93" transform="matrix(0.64, -0.77, 0.77, 0.64, -15.17, 56.13)"/>
              <rect class="cls-65" x="30.25" y="0.72" width="0.64" height="71.93" transform="translate(-15.7 56.02) rotate(-50.61)"/>
              <rect class="cls-66" x="29.84" y="1.22" width="0.64" height="71.93" transform="translate(-16.22 55.86) rotate(-50.57)"/>
              <rect class="cls-67" x="29.44" y="1.71" width="0.64" height="71.93" transform="matrix(0.64, -0.77, 0.77, 0.64, -16.75, 55.73)"/>
              <rect class="cls-68" x="29.03" y="2.2" width="0.64" height="71.93" transform="translate(-17.28 55.62) rotate(-50.61)"/>
              <rect class="cls-69" x="28.63" y="2.7" width="0.64" height="71.93" transform="translate(-17.81 55.46) rotate(-50.57)"/>
              <rect class="cls-70" x="28.22" y="3.19" width="0.64" height="71.93" transform="translate(-18.34 55.39) rotate(-50.65)"/>
              <rect class="cls-71" x="27.82" y="3.68" width="0.64" height="71.93" transform="matrix(0.64, -0.77, 0.77, 0.64, -18.87, 55.19)"/>
              <rect class="cls-71" x="26.13" y="4.78" width="2.2" height="71.93" transform="translate(-20.04 54.91) rotate(-50.58)"/>
              <polygon class="cls-72" points="55.81 83.42 54.42 85.12 0 40.41 0 38.05 0.24 37.76 55.81 83.42"/>
              <polygon class="cls-73" points="54.42 85.12 53.02 86.82 0 43.26 0 40.41 54.42 85.12"/>
              <polygon class="cls-74" points="53.02 86.82 52.37 87.61 50.51 87.61 0 46.1 0 43.26 53.02 86.82"/>
              <polygon class="cls-75" points="47.04 87.61 0 48.95 0 46.1 50.51 87.61 47.04 87.61"/>
              <polygon class="cls-76" points="43.58 87.61 0 51.8 0 48.95 47.04 87.61 43.58 87.61"/>
              <polygon class="cls-77" points="40.11 87.61 0 54.65 0 51.8 43.58 87.61 40.11 87.61"/>
              <polygon class="cls-78" points="36.64 87.61 0 57.5 0 54.65 40.11 87.61 36.64 87.61"/>
              <polygon class="cls-79" points="33.17 87.61 0 60.35 0 57.5 36.64 87.61 33.17 87.61"/>
              <polygon class="cls-80" points="29.71 87.61 0 63.2 0 60.35 33.17 87.61 29.71 87.61"/>
              <polygon class="cls-81" points="26.24 87.61 0 66.05 0 63.2 29.71 87.61 26.24 87.61"/>
              <polygon class="cls-82" points="22.77 87.61 0 68.9 0 66.05 26.24 87.61 22.77 87.61"/>
              <polygon class="cls-83" points="19.3 87.61 0 71.75 0 68.9 22.77 87.61 19.3 87.61"/>
              <polygon class="cls-83" points="0 71.75 19.3 87.61 0 87.61 0 71.75"/>
            </g>
            <path class="cls-84" d="M36,62.37H26.77v-27h-27V26.1h27V.4H36V26.1H73.25v9.27H36Zm-7.49-1.78h5.71v-27H71.47V27.88H34.26V2.18H28.55v25.7h-27v5.71h27Z" transform="translate(1.49 18.99)"/>
            <path class="cls-85" d="M4.69,16.81C5.12-3,21-19,40.16-19S74.49-2.82,74,17,57.72,52.86,38.57,52.81,4.25,36.64,4.69,16.81Z" transform="translate(1.49 18.99)"/>
          </g>
          <g>
            <g class="cls-86">
              <path class="cls-87" d="M40.76,45.35a17,17,0,1,1,5-23.58A17,17,0,0,1,40.76,45.35Zm18.47-8.43A28.39,28.39,0,1,0,25.6,58.87,28.39,28.39,0,0,0,59.23,36.92Z" transform="translate(1.49 18.99)"/>
              <path class="cls-88" d="M21.93,16.5a17.41,17.41,0,1,1,5.93,31.62A17.61,17.61,0,0,1,24,46.83,17.41,17.41,0,0,1,21.93,16.5ZM37.28,3.3a28.36,28.36,0,1,0,6.28,2.11A28.38,28.38,0,0,0,37.28,3.3Z" transform="translate(1.49 18.99)"/>
              <path class="cls-89" d="M21.72,16.18a17.79,17.79,0,1,1,6.07,32.31,18,18,0,0,1-3.93-1.32,17.8,17.8,0,0,1-2.14-31ZM37.28,3.32a28.24,28.24,0,1,0,6.28,2.1A28.36,28.36,0,0,0,37.28,3.32Z" transform="translate(1.49 18.99)"/>
              <path class="cls-90" d="M21.52,15.87a18.16,18.16,0,1,1-7.85,11.48A18.13,18.13,0,0,1,21.52,15.87ZM37.28,3.33a28.27,28.27,0,1,0,6.27,2.1A27.85,27.85,0,0,0,37.28,3.33Z" transform="translate(1.49 18.99)"/>
              <path class="cls-91" d="M21.32,15.56a18.53,18.53,0,1,1,6.31,33.66,18.92,18.92,0,0,1-4.09-1.37,18.54,18.54,0,0,1-2.22-32.29Zm16-12.22a28.23,28.23,0,1,0,6.27,2.1A28,28,0,0,0,37.28,3.34Z" transform="translate(1.49 18.99)"/>
              <path class="cls-92" d="M21.11,15.25a18.91,18.91,0,1,1,6.45,34.33,18.52,18.52,0,0,1-4.18-1.4,18.9,18.9,0,0,1-2.27-32.93ZM37.27,3.35a28.25,28.25,0,1,0,6.27,2.1A27.85,27.85,0,0,0,37.27,3.35Z" transform="translate(1.49 18.99)"/>
              <path class="cls-93" d="M20.91,14.94a19.28,19.28,0,1,1,6.57,35,19.42,19.42,0,0,1-4.26-1.43,19.28,19.28,0,0,1-2.31-33.58ZM37.27,3.36a28.21,28.21,0,1,0,6.27,2.1A29.07,29.07,0,0,0,37.27,3.36Z" transform="translate(1.49 18.99)"/>
              <path class="cls-94" d="M20.7,14.62A19.65,19.65,0,1,1,12.21,27,19.6,19.6,0,0,1,20.7,14.62ZM37.27,3.37a28.23,28.23,0,1,0,6.26,2.1A29,29,0,0,0,37.27,3.37Z" transform="translate(1.49 18.99)"/>
              <path class="cls-95" d="M20.5,14.31A20,20,0,1,1,11.85,27,19.91,19.91,0,0,1,20.5,14.31ZM37.27,3.39a28.12,28.12,0,1,0,6.26,2.09A28.61,28.61,0,0,0,37.27,3.39Z" transform="translate(1.49 18.99)"/>
              <path class="cls-96" d="M20.3,14a20.39,20.39,0,1,1-8.82,12.89A20.34,20.34,0,0,1,20.3,14Zm17-10.6a28.12,28.12,0,1,0,6.26,2.09A28.3,28.3,0,0,0,37.26,3.4Z" transform="translate(1.49 18.99)"/>
              <path class="cls-97" d="M20.09,13.69a20.77,20.77,0,1,1,7.08,37.72,21,21,0,0,1-4.59-1.54,20.78,20.78,0,0,1-2.49-36.18ZM37.26,3.41A28.08,28.08,0,1,0,43.52,5.5,28.61,28.61,0,0,0,37.26,3.41Z" transform="translate(1.49 18.99)"/>
              <path class="cls-98" d="M19.89,13.38A21.14,21.14,0,1,1,27.1,51.77a21.63,21.63,0,0,1-4.68-1.56,21.14,21.14,0,0,1-2.53-36.83Zm17.37-10a28.12,28.12,0,1,0,6.25,2.09A28.28,28.28,0,0,0,37.26,3.42Z" transform="translate(1.49 18.99)"/>
              <path class="cls-99" d="M19.69,13.06A21.52,21.52,0,1,1,27,52.14a21.86,21.86,0,0,1-4.76-1.6,21.52,21.52,0,0,1-2.57-37.48ZM37.26,3.43a28.08,28.08,0,1,0,6.25,2.09A28.7,28.7,0,0,0,37.26,3.43Z" transform="translate(1.49 18.99)"/>
              <path class="cls-100" d="M19.48,12.75A21.89,21.89,0,1,1,26.94,52.5a22,22,0,0,1-4.84-1.62,21.9,21.9,0,0,1-2.62-38.13ZM37.25,3.44A28.08,28.08,0,1,0,43.5,5.53,28.88,28.88,0,0,0,37.25,3.44Z" transform="translate(1.49 18.99)"/>
              <path class="cls-101" d="M19.28,12.44a22.26,22.26,0,1,1,7.59,40.43,22.51,22.51,0,0,1-4.93-1.65,22.27,22.27,0,0,1-2.66-38.78Zm18-9A28,28,0,1,0,43.5,5.54,28.68,28.68,0,0,0,37.25,3.46Z" transform="translate(1.49 18.99)"/>
              <path class="cls-102" d="M19.07,12.13a22.63,22.63,0,1,1,7.72,41.1,23.41,23.41,0,0,1-5-1.67,22.65,22.65,0,0,1-2.71-39.43ZM37.25,3.47a28.12,28.12,0,1,0,6.24,2.09A27.92,27.92,0,0,0,37.25,3.47Z" transform="translate(1.49 18.99)"/>
              <path class="cls-103" d="M18.87,11.82A23,23,0,1,1,26.71,53.6a23.63,23.63,0,0,1-5.09-1.71,23,23,0,0,1-2.75-40.07ZM37.25,3.48a28.08,28.08,0,1,0,6.24,2.09A28.23,28.23,0,0,0,37.25,3.48Z" transform="translate(1.49 18.99)"/>
              <path class="cls-104" d="M18.67,11.5A23.39,23.39,0,1,1,8.57,26.27,23.31,23.31,0,0,1,18.67,11.5Zm18.57-8a28.1,28.1,0,1,0,6.24,2.09A28.22,28.22,0,0,0,37.24,3.49Z" transform="translate(1.49 18.99)"/>
              <path class="cls-105" d="M18.46,11.19a23.75,23.75,0,1,1,8.1,43.14,24.19,24.19,0,0,1-5.25-1.76,23.76,23.76,0,0,1-2.85-41.38ZM37.24,3.5a28.13,28.13,0,1,0,6.23,2.09A28.21,28.21,0,0,0,37.24,3.5Z" transform="translate(1.49 18.99)"/>
              <path class="cls-106" d="M18.26,10.88A24.14,24.14,0,1,1,7.84,26.12,24,24,0,0,1,18.26,10.88Zm19-7.37A28.09,28.09,0,1,0,43.47,5.6,28.53,28.53,0,0,0,37.24,3.51Z" transform="translate(1.49 18.99)"/>
              <path class="cls-107" d="M18.06,10.57a24.5,24.5,0,1,1,26.77,41A24.33,24.33,0,0,1,26.4,55.05,24.4,24.4,0,0,1,10.93,44.47a24.48,24.48,0,0,1,7.13-33.9Zm19.18-7a28,28,0,1,0,6.22,2.08A28.17,28.17,0,0,0,37.24,3.53Z" transform="translate(1.49 18.99)"/>
              <path class="cls-108" d="M17.85,10.26A24.87,24.87,0,0,1,45,51.91,24.87,24.87,0,0,1,17.85,10.26ZM37.23,3.54a28,28,0,1,0,6.23,2.08A28.16,28.16,0,0,0,37.23,3.54Z" transform="translate(1.49 18.99)"/>
              <path class="cls-109" d="M17.65,9.94a25.24,25.24,0,1,1,8.6,45.84,24.73,24.73,0,0,1-5.58-1.86,25.25,25.25,0,0,1-3-44ZM37.23,3.55a28,28,0,1,0,6.22,2.08A28.16,28.16,0,0,0,37.23,3.55Z" transform="translate(1.49 18.99)"/>
              <path class="cls-110" d="M17.44,9.63a25.61,25.61,0,1,1,28,42.9,25.43,25.43,0,0,1-19.27,3.62,26.15,26.15,0,0,1-5.66-1.89A25.63,25.63,0,0,1,17.44,9.63ZM37.23,3.56a28,28,0,1,0,6.22,2.08A28.15,28.15,0,0,0,37.23,3.56Z" transform="translate(1.49 18.99)"/>
              <path class="cls-111" d="M17.24,9.32A26,26,0,0,1,45.65,52.85,26,26,0,1,1,17.24,9.32Zm20-5.75A28.12,28.12,0,1,0,55,15.72,27.86,27.86,0,0,0,43.44,5.65,28.52,28.52,0,0,0,37.23,3.57Z" transform="translate(1.49 18.99)"/>
              <path class="cls-112" d="M17,9a26.36,26.36,0,0,1,40.2,27.5A26.36,26.36,0,0,1,26,56.88a26.47,26.47,0,0,1-5.83-2A26.37,26.37,0,0,1,17,9ZM37.22,3.59a27.83,27.83,0,1,0,6.22,2.07A28.11,28.11,0,0,0,37.22,3.59Z" transform="translate(1.49 18.99)"/>
              <path class="cls-113" d="M16.83,8.7A26.73,26.73,0,1,1,46.05,53.47a26.53,26.53,0,0,1-20.11,3.77,27.18,27.18,0,0,1-5.91-2A26.74,26.74,0,0,1,16.83,8.7ZM37.22,3.6a27.88,27.88,0,1,0,6.21,2.07A28.1,28.1,0,0,0,37.22,3.6Z" transform="translate(1.49 18.99)"/>
              <path class="cls-114" d="M16.63,8.38a27.11,27.11,0,0,1,29.63,45.4,26.92,26.92,0,0,1-20.39,3.83,27.65,27.65,0,0,1-6-2A27.12,27.12,0,0,1,16.63,8.38ZM37.22,3.61a27.84,27.84,0,1,0,6.21,2.07A28.5,28.5,0,0,0,37.22,3.61Z" transform="translate(1.49 18.99)"/>
              <path class="cls-6" d="M46.46,54.09A27.48,27.48,0,0,1,4.55,25.43a27.47,27.47,0,0,1,49.9-9.36,27.47,27.47,0,0,1-8,38Zm8.48-38.34A27.89,27.89,0,0,0,43.42,5.69a28.42,28.42,0,0,0-6.2-2.07A28.09,28.09,0,1,0,54.94,15.75Z" transform="translate(1.49 18.99)"/>
            </g>
            <path class="cls-115" d="M31.59,57.81a34.2,34.2,0,0,1-8.49-1.5,27,27,0,0,1-8.89-4.47h0a18,18,0,0,0,8.42,5.09,20.71,20.71,0,0,0,9,.88Z" transform="translate(1.49 18.99)"/>
            <g class="cls-86">
              <path class="cls-87" d="M42.85,14.34l2.49-5.48A25.89,25.89,0,0,0,31.75,7l3.84,5.63A16.26,16.26,0,0,1,42.85,14.34Z" transform="translate(1.49 18.99)"/>
              <path class="cls-91" d="M32.64,7.16l3.49,5.23a15.8,15.8,0,0,1,5.33,1.1c.45.17.89.34,1.29.51l1.71-3.78S45,9,45,8.94A24.18,24.18,0,0,0,32.64,7.16Z" transform="translate(1.49 18.99)"/>
              <path class="cls-95" d="M33.54,7.35l3.13,4.83a16.3,16.3,0,0,1,4.82,1.09c.4.16.81.28,1.16.39l1.55-3.48A6.1,6.1,0,0,0,44.58,9,22.86,22.86,0,0,0,33.54,7.35Z" transform="translate(1.49 18.99)"/>
              <path class="cls-99" d="M34.43,7.55,37.21,12a17.39,17.39,0,0,1,4.3,1.08,4.33,4.33,0,0,0,1,.27L44,10.14c0-.1.36-1,.25-1.05A21.46,21.46,0,0,0,34.43,7.55Z" transform="translate(1.49 18.99)"/>
              <path class="cls-103" d="M35.32,7.74l2.42,4a19.24,19.24,0,0,1,3.8,1.07,2.22,2.22,0,0,0,.91.14L43.7,10.1c.06-.13.26-.89.12-.94A20.47,20.47,0,0,0,35.32,7.74Z" transform="translate(1.49 18.99)"/>
              <path class="cls-107" d="M36.21,7.94l2.07,3.62a29.08,29.08,0,0,1,3.28,1.06,1.14,1.14,0,0,0,.79,0l1.09-2.58c.08-.17.18-.76,0-.82A19.6,19.6,0,0,0,36.21,7.94Z" transform="translate(1.49 18.99)"/>
              <path class="cls-111" d="M37.1,8.13l1.72,3.23c.87.3,1.86.7,2.76,1a.67.67,0,0,0,.67-.1L43.19,10c.09-.2.08-.64-.13-.71A20.55,20.55,0,0,0,37.1,8.13Z" transform="translate(1.49 18.99)"/>
              <path class="cls-6" d="M39.36,11.15a18.41,18.41,0,0,0,2.25,1,.42.42,0,0,0,.54-.22l.79-2a.44.44,0,0,0-.26-.59A25.44,25.44,0,0,0,38,8.33Z" transform="translate(1.49 18.99)"/>
            </g>
            <g class="cls-86">
              <path class="cls-87" d="M43.42,14.79a.41.41,0,0,0,.1.49c1.69,1.47,4.85,4.53,5.83,6.59A16,16,0,0,1,50.6,32.05l4.73,4.89a22,22,0,0,0-.6-17.64A21.14,21.14,0,0,0,46.27,10a.41.41,0,0,0-.57.17Z" transform="translate(1.49 18.99)"/>
              <path class="cls-116" d="M45.93,10.36l-2.2,4.51a.41.41,0,0,0,.07.47c.2.17.4.4.63.62s.3.31.47.47a22.63,22.63,0,0,1,4.45,5.3,16.46,16.46,0,0,1,.86,2.16,15.9,15.9,0,0,1,.67,6.17c-.05.5-.09,1-.16,1.44l4.58,4.42a16.77,16.77,0,0,0,1.09-3.57,21.17,21.17,0,0,0-1.72-13,20.71,20.71,0,0,0-8-9l-.17-.09A.41.41,0,0,0,45.93,10.36Z" transform="translate(1.49 18.99)"/>
              <path class="cls-117" d="M46.17,10.61,44,15a.41.41,0,0,0,.06.46c.17.15.34.4.54.6s.27.31.43.46a22,22,0,0,1,4.3,5.12,17.67,17.67,0,0,1,.83,2.08,15.69,15.69,0,0,1,.73,5.93c0,.48-.05.94-.08,1.35l4.44,4a13.67,13.67,0,0,0,1-3.34,20.37,20.37,0,0,0-1.72-12.25,20,20,0,0,0-7.74-8.8l-.16-.09A.4.4,0,0,0,46.17,10.61Z" transform="translate(1.49 18.99)"/>
              <path class="cls-94" d="M46.4,10.85,44.33,15a.41.41,0,0,0,0,.44c.16.14.29.4.46.59a5.24,5.24,0,0,0,.4.46,21.33,21.33,0,0,1,4.13,4.93,17.42,17.42,0,0,1,.81,2A15.53,15.53,0,0,1,51,29.14c0,.47,0,.9,0,1.26l4.3,3.49a10.62,10.62,0,0,0,1-3.1,19.51,19.51,0,0,0-1.71-11.46,19.37,19.37,0,0,0-7.47-8.57l-.16-.09A.39.39,0,0,0,46.4,10.85Z" transform="translate(1.49 18.99)"/>
              <path class="cls-118" d="M46.63,11.09l-2,4c-.05.12-.07.35,0,.43s.23.41.38.58a3.37,3.37,0,0,0,.36.45,20.43,20.43,0,0,1,4,4.75,18,18,0,0,1,.8,1.92A15.64,15.64,0,0,1,51,28.69a7.53,7.53,0,0,0,.08,1.16l4.16,3a8.39,8.39,0,0,0,1-2.87,18.82,18.82,0,0,0-1.72-10.67A18.7,18.7,0,0,0,47.29,11l-.15-.08A.39.39,0,0,0,46.63,11.09Z" transform="translate(1.49 18.99)"/>
              <path class="cls-119" d="M46.87,11.33l-1.93,3.85c0,.1-.09.34,0,.41s.15.44.3.57a1.29,1.29,0,0,0,.32.45,19.13,19.13,0,0,1,3.81,4.57A16.77,16.77,0,0,1,50.14,23a15.84,15.84,0,0,1,.9,5.22,4.1,4.1,0,0,0,.16,1.07l4,2.56a6.49,6.49,0,0,0,.91-2.64,18,18,0,0,0-1.71-9.88,18.14,18.14,0,0,0-6.91-8.1l-.15-.08A.38.38,0,0,0,46.87,11.33Z" transform="translate(1.49 18.99)"/>
              <path class="cls-101" d="M47.1,11.58l-1.86,3.68c0,.08-.1.33,0,.39s.09.45.22.57a1,1,0,0,0,.29.43A18.22,18.22,0,0,1,49.36,21a16.46,16.46,0,0,1,.76,1.75,15.54,15.54,0,0,1,1,5,2.39,2.39,0,0,0,.24,1l3.88,2.08a5.18,5.18,0,0,0,.87-2.4,17.41,17.41,0,0,0-1.71-9.09,17.55,17.55,0,0,0-6.64-7.87l-.15-.08A.37.37,0,0,0,47.1,11.58Z" transform="translate(1.49 18.99)"/>
              <path class="cls-120" d="M47.33,11.82l-1.79,3.52c0,.07-.11.32,0,.37s0,.46.14.56a.84.84,0,0,0,.25.43,17.34,17.34,0,0,1,3.48,4.2,17.13,17.13,0,0,1,.74,1.67,15.67,15.67,0,0,1,1,4.75,1.57,1.57,0,0,0,.32.89l3.73,1.61A3.89,3.89,0,0,0,56,27.65a17,17,0,0,0-1.71-8.29,16.83,16.83,0,0,0-6.37-7.64l-.14-.08A.38.38,0,0,0,47.33,11.82Z" transform="translate(1.49 18.99)"/>
              <path class="cls-121" d="M47.57,12.06l-1.72,3.36c0,.05-.12.32-.08.36s0,.46.06.54a.65.65,0,0,0,.21.42,16.63,16.63,0,0,1,3.32,4,15.55,15.55,0,0,1,.72,1.59,16.2,16.2,0,0,1,1.08,4.51,1.13,1.13,0,0,0,.4.8l3.59,1.14a2.93,2.93,0,0,0,.79-1.93,16.53,16.53,0,0,0-1.7-7.51,16.33,16.33,0,0,0-6.1-7.4.42.42,0,0,0-.13-.07A.36.36,0,0,0,47.57,12.06Z" transform="translate(1.49 18.99)"/>
              <path class="cls-108" d="M47.8,12.3l-1.65,3.19s-.13.32-.09.35-.09.47,0,.53a.53.53,0,0,0,.18.42,15.69,15.69,0,0,1,3.15,3.83c.25.47.48,1,.71,1.51a16.42,16.42,0,0,1,1.13,4.28.85.85,0,0,0,.48.7l3.45.68a2.24,2.24,0,0,0,.75-1.7,16.37,16.37,0,0,0-1.7-6.72C52.47,15.78,51,14,48.36,12.2l-.14-.07A.36.36,0,0,0,47.8,12.3Z" transform="translate(1.49 18.99)"/>
              <path class="cls-122" d="M48,12.55l-1.58,3s-.14.31-.11.33-.15.48-.11.52a.44.44,0,0,0,.14.41,15.07,15.07,0,0,1,3,3.65c.24.44.46.91.69,1.43a17.58,17.58,0,0,1,1.19,4,.69.69,0,0,0,.56.61l3.31.21a1.66,1.66,0,0,0,.71-1.47,16.91,16.91,0,0,0-1.7-5.92c-1.69-3.54-3-5.21-5.55-6.95l-.13-.06A.36.36,0,0,0,48,12.55Z" transform="translate(1.49 18.99)"/>
              <path class="cls-123" d="M48.27,12.79l-1.51,2.86a2.12,2.12,0,0,0-.14.31s-.21.49-.19.51a.4.4,0,0,0,.1.41,14.14,14.14,0,0,1,2.83,3.46c.23.41.45.85.67,1.35a17.8,17.8,0,0,1,1.25,3.8.63.63,0,0,0,.64.52l3.17-.26a1.17,1.17,0,0,0,.66-1.23,17.87,17.87,0,0,0-1.69-5.13c-1.67-3.49-2.87-5-5.28-6.72l-.12-.05A.33.33,0,0,0,48.27,12.79Z" transform="translate(1.49 18.99)"/>
              <path class="cls-6" d="M54,19.4c-1.64-3.44-2.7-4.83-5-6.49a.33.33,0,0,0-.49.12l-1.87,3.49a.35.35,0,0,0,.07.41A13.21,13.21,0,0,1,50,21.47,19.64,19.64,0,0,1,51.32,25a.61.61,0,0,0,.72.43l3-.73a.85.85,0,0,0,.63-1A22,22,0,0,0,54,19.4Z" transform="translate(1.49 18.99)"/>
            </g>
            <path class="cls-124" d="M21.14,6.17a41,41,0,0,1,11.2-1.59,25.26,25.26,0,0,1,12,2.74h0c-2.44-1.95-6.1-3.38-12.08-3.66-4.73-.23-8.18,1.25-11.14,2.51Z" transform="translate(1.49 18.99)"/>
            <g class="cls-125">
              <path class="cls-87" d="M3,34.54c-1-2.68-.67-5.05-.45-8A26.84,26.84,0,0,1,11.23,9,27,27,0,0,1,30.14,1.72,28.72,28.72,0,0,1,42.22,4.65c1.42.7,2,3.34.38,3.41a52.51,52.51,0,0,0-13.33,2.19,32.33,32.33,0,0,0-10.18,5.22,31.34,31.34,0,0,0-7.42,8.36,49.25,49.25,0,0,0-5.06,11.6C6.18,36.85,3.48,35.93,3,34.54Z" transform="translate(1.49 18.99)"/>
              <path class="cls-126" d="M30,1.8A28.84,28.84,0,0,1,42,4.63c1.42.69,2,3.29.39,3.37l-1.69.1a50.32,50.32,0,0,0-11.53,2.08,35.63,35.63,0,0,0-3.76,1.41,30.82,30.82,0,0,0-6.33,3.75,29.9,29.9,0,0,0-3.83,3.55,33.31,33.31,0,0,0-3.54,4.73,40.2,40.2,0,0,0-2.78,5.31A57,57,0,0,0,6.65,35.1c-.43,1.41-3.07.52-3.6-.82a9.28,9.28,0,0,1-.56-2.09,19.32,19.32,0,0,1,0-4.69l.09-1.08A25.82,25.82,0,0,1,6.43,14.83a28.09,28.09,0,0,1,9.63-9.38A26.47,26.47,0,0,1,30,1.8Z" transform="translate(1.49 18.99)"/>
              <path class="cls-127" d="M29.78,1.88a28.9,28.9,0,0,1,12,2.74c1.42.66,2,3.23.38,3.32L40.49,8A50.09,50.09,0,0,0,29.05,10.1a36.28,36.28,0,0,0-3.72,1.4A30.82,30.82,0,0,0,19,15.21a30,30,0,0,0-3.79,3.51,33.33,33.33,0,0,0-3.53,4.68A41.33,41.33,0,0,0,9,28.66,55.34,55.34,0,0,0,6.7,34.78c-.43,1.38-3,.54-3.55-.76a9.27,9.27,0,0,1-.56-2,18,18,0,0,1,0-4.59l.09-1.07A25.81,25.81,0,0,1,6.48,14.85,27.83,27.83,0,0,1,16,5.55,26.39,26.39,0,0,1,29.78,1.88Z" transform="translate(1.49 18.99)"/>
              <path class="cls-128" d="M29.6,2A29,29,0,0,1,41.54,4.6c1.43.65,2,3.18.39,3.28L40.28,8A49.75,49.75,0,0,0,29,10a34.48,34.48,0,0,0-3.7,1.38A30.49,30.49,0,0,0,19,15.08a28.86,28.86,0,0,0-3.77,3.48,32.57,32.57,0,0,0-3.5,4.62A40,40,0,0,0,9,28.39a54.25,54.25,0,0,0-2.26,6.06c-.43,1.37-3,.56-3.5-.69a10,10,0,0,1-.56-1.94,16.74,16.74,0,0,1-.06-4.5l.09-1.06A25.71,25.71,0,0,1,6.53,14.88,27.79,27.79,0,0,1,16,5.64,26.18,26.18,0,0,1,29.6,2Z" transform="translate(1.49 18.99)"/>
              <path class="cls-116" d="M29.42,2A29.32,29.32,0,0,1,41.31,4.58c1.44.65,2,3.13.4,3.23l-1.63.11a49.52,49.52,0,0,0-11.24,2,35.11,35.11,0,0,0-3.66,1.37A30.15,30.15,0,0,0,19,15a29.09,29.09,0,0,0-3.75,3.44A32.24,32.24,0,0,0,11.77,23,41.71,41.71,0,0,0,9,28.12a54.67,54.67,0,0,0-2.24,6c-.43,1.36-2.93.59-3.45-.62a9.42,9.42,0,0,1-.56-1.87,15.86,15.86,0,0,1-.09-4.4l.09-1.05A25.58,25.58,0,0,1,6.58,14.9a27.19,27.19,0,0,1,4.66-5.66,26.86,26.86,0,0,1,4.68-3.51A26.25,26.25,0,0,1,29.42,2Z" transform="translate(1.49 18.99)"/>
              <path class="cls-129" d="M29.24,2.12A29.55,29.55,0,0,1,41.09,4.57c1.44.63,2,3.07.4,3.18l-1.62.11a49.18,49.18,0,0,0-11.13,2,35.56,35.56,0,0,0-3.64,1.35A30.63,30.63,0,0,0,19,14.82a29.88,29.88,0,0,0-3.72,3.4,31.42,31.42,0,0,0-3.45,4.53,39.68,39.68,0,0,0-2.73,5.1,55.66,55.66,0,0,0-2.24,5.94c-.42,1.35-2.88.61-3.39-.54a8.92,8.92,0,0,1-.56-1.81,14.61,14.61,0,0,1-.13-4.3c0-.34.07-.69.1-1A25.44,25.44,0,0,1,6.63,14.92a27.51,27.51,0,0,1,9.25-9.1A26.21,26.21,0,0,1,29.24,2.12Z" transform="translate(1.49 18.99)"/>
              <path class="cls-130" d="M29.06,2.21a29.69,29.69,0,0,1,11.8,2.34c1.45.61,2,3,.41,3.14l-1.61.11a49.53,49.53,0,0,0-11,2A34,34,0,0,0,25,11.14,29.83,29.83,0,0,0,19,14.69a28,28,0,0,0-3.69,3.36,31.44,31.44,0,0,0-3.44,4.48,40.89,40.89,0,0,0-2.71,5,52.51,52.51,0,0,0-2.23,5.88C6.45,34.8,4,34.1,3.54,33A8.35,8.35,0,0,1,3,31.25a13.44,13.44,0,0,1-.16-4.2c0-.34.07-.68.1-1A25.44,25.44,0,0,1,6.68,14.94a27.3,27.3,0,0,1,4.57-5.56,26.42,26.42,0,0,1,4.59-3.46A25.93,25.93,0,0,1,29.06,2.21Z" transform="translate(1.49 18.99)"/>
              <path class="cls-131" d="M28.88,2.29A29.68,29.68,0,0,1,40.63,4.54c1.45.59,1.95,3,.42,3.08l-1.59.12a49.51,49.51,0,0,0-10.94,2A36.44,36.44,0,0,0,25,11.05a29.42,29.42,0,0,0-6,3.52,28.64,28.64,0,0,0-3.66,3.31,30.88,30.88,0,0,0-3.41,4.44,38.22,38.22,0,0,0-2.7,5,52.47,52.47,0,0,0-2.23,5.81c-.42,1.33-2.78.66-3.29-.4a8.15,8.15,0,0,1-.55-1.67A12.35,12.35,0,0,1,2.89,27c0-.34.06-.68.1-1A25.34,25.34,0,0,1,6.72,15a27.2,27.2,0,0,1,4.53-5.52A26.84,26.84,0,0,1,15.79,6,26,26,0,0,1,28.88,2.29Z" transform="translate(1.49 18.99)"/>
              <path class="cls-117" d="M28.7,2.37A29.88,29.88,0,0,1,40.41,4.52c1.45.58,1.94,2.92.42,3l-1.58.12a49.08,49.08,0,0,0-10.83,2A36,36,0,0,0,24.88,11a29.54,29.54,0,0,0-6,3.48,26.91,26.91,0,0,0-3.64,3.28,31.67,31.67,0,0,0-3.39,4.38,39.4,39.4,0,0,0-2.69,4.95A54.42,54.42,0,0,0,7,32.81c-.43,1.3-2.74.68-3.24-.34a7.79,7.79,0,0,1-.55-1.6,11.09,11.09,0,0,1-.22-4c0-.33.06-.67.1-1A25.34,25.34,0,0,1,6.77,15a27,27,0,0,1,9-8.88A25.76,25.76,0,0,1,28.7,2.37Z" transform="translate(1.49 18.99)"/>
              <path class="cls-132" d="M28.52,2.45A30,30,0,0,1,40.18,4.51c1.46.56,1.94,2.86.43,3l-1.56.12a49.45,49.45,0,0,0-10.74,2c-1.22.39-2.39.82-3.5,1.3a28.75,28.75,0,0,0-5.93,3.44,27,27,0,0,0-3.61,3.24,31.72,31.72,0,0,0-3.38,4.33,39.94,39.94,0,0,0-2.67,4.9A53.29,53.29,0,0,0,7,32.48c-.42,1.29-2.69.7-3.18-.27a7.24,7.24,0,0,1-.56-1.52A10.85,10.85,0,0,1,3,26.78c0-.33.07-.67.1-1A25.23,25.23,0,0,1,6.82,15a27.08,27.08,0,0,1,4.43-5.42A26.68,26.68,0,0,1,15.7,6.2,25.75,25.75,0,0,1,28.52,2.45Z" transform="translate(1.49 18.99)"/>
              <path class="cls-133" d="M28.34,2.53A30.3,30.3,0,0,1,40,4.49c1.46.55,1.93,2.81.43,3l-1.55.12A49.13,49.13,0,0,0,28.21,9.5a34.8,34.8,0,0,0-3.48,1.29,28.73,28.73,0,0,0-5.88,3.39,27.19,27.19,0,0,0-3.58,3.2,30.39,30.39,0,0,0-3.35,4.29,37.78,37.78,0,0,0-2.66,4.84,52.17,52.17,0,0,0-2.2,5.64c-.42,1.28-2.64.73-3.13-.2a6.54,6.54,0,0,1-.56-1.45,9.73,9.73,0,0,1-.28-3.82c0-.32.07-.65.1-1A25.15,25.15,0,0,1,6.87,15a26.64,26.64,0,0,1,4.39-5.38,26.31,26.31,0,0,1,4.4-3.37A25.75,25.75,0,0,1,28.34,2.53Z" transform="translate(1.49 18.99)"/>
              <path class="cls-134" d="M28.16,2.61A30.69,30.69,0,0,1,39.73,4.47c1.47.54,1.93,2.76.44,2.9l-1.53.13A48.91,48.91,0,0,0,28.1,9.42a34,34,0,0,0-3.44,1.28,28.4,28.4,0,0,0-5.83,3.35,27.36,27.36,0,0,0-3.56,3.16,31.14,31.14,0,0,0-3.33,4.24A39,39,0,0,0,9.3,26.24a51.07,51.07,0,0,0-2.2,5.58c-.42,1.27-2.59.75-3.08-.13a7.08,7.08,0,0,1-.55-1.38,9,9,0,0,1-.31-3.72c0-.32.07-.64.1-1A25.16,25.16,0,0,1,6.92,15.06a26.38,26.38,0,0,1,4.34-5.33,26.78,26.78,0,0,1,4.35-3.35A25.72,25.72,0,0,1,28.16,2.61Z" transform="translate(1.49 18.99)"/>
              <path class="cls-94" d="M28,2.69A30.68,30.68,0,0,1,39.5,4.46C41,5,41.43,7.16,40,7.31l-1.52.13A48.81,48.81,0,0,0,28,9.35a34.31,34.31,0,0,0-3.41,1.26,28.14,28.14,0,0,0-5.78,3.31,26.8,26.8,0,0,0-3.52,3.13A29.12,29.12,0,0,0,12,21.23,37,37,0,0,0,9.34,26a49.58,49.58,0,0,0-2.19,5.52c-.42,1.26-2.55.78-3,0a6.88,6.88,0,0,1-.55-1.32,8,8,0,0,1-.34-3.62c0-.31.07-.64.1-1A25,25,0,0,1,7,15.08a26.44,26.44,0,0,1,8.6-8.6A25.52,25.52,0,0,1,28,2.69Z" transform="translate(1.49 18.99)"/>
              <path class="cls-135" d="M27.8,2.78A30.91,30.91,0,0,1,39.28,4.44c1.48.51,1.92,2.65.44,2.81l-1.5.13A48.4,48.4,0,0,0,27.89,9.27a32.83,32.83,0,0,0-3.38,1.25,28.35,28.35,0,0,0-5.73,3.27,27.06,27.06,0,0,0-3.5,3.09A29.34,29.34,0,0,0,12,21,38.68,38.68,0,0,0,9.37,25.7a52.62,52.62,0,0,0-2.18,5.46c-.42,1.25-2.49.81-3,0a6.37,6.37,0,0,1-.55-1.25,7.38,7.38,0,0,1-.38-3.52c0-.31.08-.63.11-1A25,25,0,0,1,7,15.11a26.78,26.78,0,0,1,4.26-5.24,25.92,25.92,0,0,1,4.26-3.3A25.45,25.45,0,0,1,27.8,2.78Z" transform="translate(1.49 18.99)"/>
              <path class="cls-136" d="M27.62,2.86A30.89,30.89,0,0,1,39.05,4.43C40.53,4.92,41,7,39.5,7.18c-.48.06-1,.1-1.48.14A48.28,48.28,0,0,0,27.78,9.2a32,32,0,0,0-3.34,1.23,28,28,0,0,0-5.68,3.23,26.58,26.58,0,0,0-3.48,3.05A29.26,29.26,0,0,0,12,20.8a37.35,37.35,0,0,0-2.61,4.63,48.78,48.78,0,0,0-2.17,5.41c-.42,1.23-2.45.82-2.92.08a5.64,5.64,0,0,1-.55-1.18,6.67,6.67,0,0,1-.41-3.42c0-.31.07-.63.11-.95A25,25,0,0,1,7.06,15.13a26.52,26.52,0,0,1,4.21-5.19,25.84,25.84,0,0,1,4.21-3.28A25.39,25.39,0,0,1,27.62,2.86Z" transform="translate(1.49 18.99)"/>
              <path class="cls-137" d="M27.44,2.94A31.29,31.29,0,0,1,38.82,4.41c1.49.48,1.91,2.54.46,2.71-.47.06-1,.1-1.47.14A47.88,47.88,0,0,0,27.68,9.12a34.08,34.08,0,0,0-3.32,1.22,28,28,0,0,0-5.63,3.19,26.67,26.67,0,0,0-3.45,3,30,30,0,0,0-3.24,4,36.59,36.59,0,0,0-2.59,4.58,49.68,49.68,0,0,0-2.17,5.35c-.42,1.21-2.4.85-2.87.15a6.63,6.63,0,0,1-.55-1.1,6.2,6.2,0,0,1-.43-3.33c0-.31.07-.62.11-.94A24.85,24.85,0,0,1,7.11,15.15,26.62,26.62,0,0,1,11.27,10,25.47,25.47,0,0,1,27.44,2.94Z" transform="translate(1.49 18.99)"/>
              <path class="cls-118" d="M27.26,3A31.36,31.36,0,0,1,38.6,4.4c1.49.46,1.9,2.48.46,2.66-.47.06-1,.1-1.45.14a47.65,47.65,0,0,0-10,1.85,30.89,30.89,0,0,0-3.28,1.2,27.71,27.71,0,0,0-5.58,3.15,26.2,26.2,0,0,0-3.42,3,28,28,0,0,0-3.22,4,35.73,35.73,0,0,0-2.58,4.52,50.27,50.27,0,0,0-2.16,5.29c-.42,1.2-2.35.87-2.82.22a7,7,0,0,1-.55-1,5.49,5.49,0,0,1-.46-3.23c0-.3.07-.61.11-.93a24.79,24.79,0,0,1,3.55-10,26.22,26.22,0,0,1,8.23-8.33A25.34,25.34,0,0,1,27.26,3Z" transform="translate(1.49 18.99)"/>
              <path class="cls-138" d="M27.08,3.1A31.55,31.55,0,0,1,38.37,4.38c1.5.45,1.9,2.43.47,2.62l-1.44.14A48.37,48.37,0,0,0,27.46,9a34.6,34.6,0,0,0-3.25,1.19,28.23,28.23,0,0,0-5.53,3.11,25.62,25.62,0,0,0-3.39,2.94,28.07,28.07,0,0,0-3.2,3.94,35.68,35.68,0,0,0-2.56,4.47,49.16,49.16,0,0,0-2.16,5.23c-.41,1.19-2.3.9-2.76.29a6.46,6.46,0,0,1-.55-1,5,5,0,0,1-.5-3.13l.12-.92A24.52,24.52,0,0,1,7.21,15.2a25.61,25.61,0,0,1,4.07-5,25.91,25.91,0,0,1,4.07-3.21A25.21,25.21,0,0,1,27.08,3.1Z" transform="translate(1.49 18.99)"/>
              <path class="cls-139" d="M26.9,3.18A31.59,31.59,0,0,1,38.15,4.37c1.5.43,1.89,2.37.47,2.56-.45.06-.93.11-1.42.15A47.26,47.26,0,0,0,27.36,8.9a29.76,29.76,0,0,0-3.22,1.17,27.41,27.41,0,0,0-5.48,3.07A25.9,25.9,0,0,0,15.29,16a28.74,28.74,0,0,0-3.17,3.89,35.72,35.72,0,0,0-2.56,4.42,50.17,50.17,0,0,0-2.14,5.17c-.42,1.18-2.26.93-2.71.36A6,6,0,0,1,4.16,29a4.47,4.47,0,0,1-.53-3l.12-.91a24.56,24.56,0,0,1,3.51-9.83A25.78,25.78,0,0,1,15.3,7,25.14,25.14,0,0,1,26.9,3.18Z" transform="translate(1.49 18.99)"/>
              <path class="cls-140" d="M26.72,3.26a31.79,31.79,0,0,1,11.2,1.09c1.51.42,1.89,2.32.48,2.52Q37.73,7,37,7a47.88,47.88,0,0,0-9.74,1.8c-1.11.35-2.17.73-3.19,1.16a27.65,27.65,0,0,0-5.43,3,24.62,24.62,0,0,0-3.33,2.86,28.3,28.3,0,0,0-3.16,3.85A33.58,33.58,0,0,0,9.6,24.09a47.94,47.94,0,0,0-2.14,5.1c-.41,1.17-2.2.95-2.66.44a6.44,6.44,0,0,1-.54-.83,4,4,0,0,1-.56-2.93l.12-.9a24.5,24.5,0,0,1,3.49-9.72,25.77,25.77,0,0,1,8-8.12A25,25,0,0,1,26.72,3.26Z" transform="translate(1.49 18.99)"/>
              <path class="cls-119" d="M26.54,3.35a32,32,0,0,1,11.15,1c1.52.41,1.89,2.27.49,2.48-.44.06-.91.11-1.4.15a46.78,46.78,0,0,0-9.63,1.79A33.42,33.42,0,0,0,24,9.89a27.62,27.62,0,0,0-5.38,3A25.54,25.54,0,0,0,15.3,15.7a29.09,29.09,0,0,0-3.14,3.8,34.71,34.71,0,0,0-2.52,4.32,45.69,45.69,0,0,0-2.13,5c-.42,1.16-2.16,1-2.61.51a5.75,5.75,0,0,1-.54-.76,3.56,3.56,0,0,1-.59-2.83l.12-.89a24.53,24.53,0,0,1,3.46-9.62,25.81,25.81,0,0,1,3.94-4.91,25.34,25.34,0,0,1,3.92-3.14A25,25,0,0,1,26.54,3.35Z" transform="translate(1.49 18.99)"/>
              <path class="cls-141" d="M26.36,3.43a32,32,0,0,1,11.11.89c1.51.39,1.88,2.21.49,2.42-.44.07-.9.12-1.38.16A47.4,47.4,0,0,0,27,8.67C26,9,24.91,9.38,23.91,9.8a27,27,0,0,0-5.32,2.95,25.13,25.13,0,0,0-3.29,2.79,27.68,27.68,0,0,0-3.11,3.74,33.5,33.5,0,0,0-2.51,4.27,46.77,46.77,0,0,0-2.13,5c-.41,1.14-2.11,1-2.55.57a3.08,3.08,0,0,1-.54-.68,3,3,0,0,1-.63-2.74L4,24.81A24.6,24.6,0,0,1,7.4,15.29a25.94,25.94,0,0,1,3.89-4.86,24.83,24.83,0,0,1,15.07-7Z" transform="translate(1.49 18.99)"/>
              <path class="cls-142" d="M26.18,3.51a32.25,32.25,0,0,1,11.06.79c1.52.37,1.87,2.16.5,2.38-.43.07-.89.12-1.37.16A46.52,46.52,0,0,0,26.93,8.6q-1.62.49-3.09,1.11a27.34,27.34,0,0,0-5.28,2.91,25.23,25.23,0,0,0-3.26,2.75,27.17,27.17,0,0,0-3.09,3.7,33.87,33.87,0,0,0-2.5,4.21A45.66,45.66,0,0,0,7.6,28.21c-.41,1.12-2.06,1-2.51.64a3.58,3.58,0,0,1-.54-.61c-.37-.23-.88-1.08-.65-2.64L4,24.73a24.55,24.55,0,0,1,3.43-9.41A25.48,25.48,0,0,1,11.3,10.5a24.43,24.43,0,0,1,3.83-3.09A24.76,24.76,0,0,1,26.18,3.51Z" transform="translate(1.49 18.99)"/>
              <path class="cls-143" d="M26,3.59a32.45,32.45,0,0,1,11,.7c1.53.35,1.87,2.1.51,2.33-.43.07-.88.12-1.35.16a46.8,46.8,0,0,0-9.34,1.74c-1.07.33-2.09.7-3.06,1.1a27,27,0,0,0-5.23,2.87,24.79,24.79,0,0,0-3.23,2.71,26.47,26.47,0,0,0-3.07,3.65A33.16,33.16,0,0,0,9.75,23a45.43,45.43,0,0,0-2.11,4.87,1.8,1.8,0,0,1-2.45.71,3,3,0,0,1-.54-.54c-.38-.17-.91-1-.68-2.54l.12-.86A24.51,24.51,0,0,1,7.5,15.34a24.9,24.9,0,0,1,3.8-4.77A25.48,25.48,0,0,1,15.08,7.5,25,25,0,0,1,26,3.59Z" transform="translate(1.49 18.99)"/>
              <path class="cls-101" d="M25.82,3.67a32.48,32.48,0,0,1,11,.6c1.53.34,1.86,2.05.5,2.29-.41.07-.86.12-1.33.16a46,46,0,0,0-9.24,1.73,31.68,31.68,0,0,0-3,1.08,26.77,26.77,0,0,0-5.18,2.83A25.73,25.73,0,0,0,15.31,15a27.88,27.88,0,0,0-3.05,3.6,33.13,33.13,0,0,0-2.47,4.11,44.34,44.34,0,0,0-2.1,4.81,1.83,1.83,0,0,1-2.4.78,2.6,2.6,0,0,1-.54-.47c-.39-.11-1-.89-.71-2.44l.12-.86a24.54,24.54,0,0,1,3.39-9.2,25,25,0,0,1,3.75-4.72A24.36,24.36,0,0,1,15,7.6,24.65,24.65,0,0,1,25.82,3.67Z" transform="translate(1.49 18.99)"/>
              <path class="cls-144" d="M25.64,3.75a32.44,32.44,0,0,1,10.92.51c1.54.32,1.86,2,.51,2.23-.41.07-.85.13-1.31.17a46.34,46.34,0,0,0-9.14,1.71c-1.05.32-2.05.68-3,1.07a27.06,27.06,0,0,0-5.13,2.79,23.7,23.7,0,0,0-3.18,2.64,25.94,25.94,0,0,0-3,3.55,32.29,32.29,0,0,0-2.46,4,46.2,46.2,0,0,0-2.1,4.75,1.86,1.86,0,0,1-2.34.86,2.9,2.9,0,0,1-.54-.41c-.4-.05-1-.8-.75-2.34.05-.28.09-.56.13-.85a24.27,24.27,0,0,1,3.37-9.1,24.82,24.82,0,0,1,3.71-4.67,24.35,24.35,0,0,1,3.68-3A24.8,24.8,0,0,1,25.64,3.75Z" transform="translate(1.49 18.99)"/>
              <path class="cls-145" d="M25.46,3.83a32.92,32.92,0,0,1,10.87.41c1.55.31,1.86,1.94.52,2.19-.4.07-.84.13-1.3.17a46.46,46.46,0,0,0-9,1.7,31.39,31.39,0,0,0-3,1,27,27,0,0,0-5.07,2.75,23.28,23.28,0,0,0-3.15,2.6,26,26,0,0,0-3,3.5,31.55,31.55,0,0,0-2.44,4,45.06,45.06,0,0,0-2.09,4.69,1.91,1.91,0,0,1-2.3.93A2.71,2.71,0,0,1,5,27.48c-.4,0-1-.71-.78-2.24,0-.28.09-.55.13-.84a24.4,24.4,0,0,1,3.34-9,24.75,24.75,0,0,1,3.67-4.63A24.34,24.34,0,0,1,25.46,3.83Z" transform="translate(1.49 18.99)"/>
              <path class="cls-146" d="M25.28,3.92a32.91,32.91,0,0,1,10.83.3c1.55.3,1.85,1.89.52,2.15-.39.07-.82.13-1.29.17A46.33,46.33,0,0,0,26.4,8.22c-1,.31-2,.66-2.93,1a26.8,26.8,0,0,0-5,2.71,24.15,24.15,0,0,0-3.12,2.56,26.76,26.76,0,0,0-3,3.45A32.85,32.85,0,0,0,9.9,21.93a46.28,46.28,0,0,0-2.08,4.64,2,2,0,0,1-2.24,1,3.75,3.75,0,0,1-.53-.26c-.41.06-1.06-.62-.81-2.15,0-.27.09-.55.13-.83a24.5,24.5,0,0,1,3.32-8.89A24.95,24.95,0,0,1,14.9,7.88,24.66,24.66,0,0,1,25.28,3.92Z" transform="translate(1.49 18.99)"/>
              <path class="cls-120" d="M25.1,4a32.86,32.86,0,0,1,10.78.21c1.56.28,1.85,1.83.53,2.09a11.09,11.09,0,0,1-1.27.18A46,46,0,0,0,26.3,8.15c-1,.3-2,.65-2.91,1a26.72,26.72,0,0,0-5,2.67,24.36,24.36,0,0,0-3.1,2.52,26.24,26.24,0,0,0-3,3.41,32,32,0,0,0-2.42,3.89,43,43,0,0,0-2.07,4.58A2,2,0,0,1,5.68,27.3c-.22-.06-.39-.14-.54-.19-.41.13-1.09-.53-.83-2.05,0-.27.08-.54.13-.82a24.42,24.42,0,0,1,3.3-8.79,25.13,25.13,0,0,1,3.58-4.53A24.15,24.15,0,0,1,25.1,4Z" transform="translate(1.49 18.99)"/>
              <path class="cls-147" d="M24.92,4.08a33.42,33.42,0,0,1,10.74.11c1.55.27,1.84,1.78.53,2.05a10.6,10.6,0,0,1-1.26.18,45.91,45.91,0,0,0-8.74,1.65c-1,.31-2,.64-2.87,1a26.21,26.21,0,0,0-4.93,2.62,23.84,23.84,0,0,0-3.06,2.48,24.92,24.92,0,0,0-2.94,3.36A30.8,30.8,0,0,0,10,21.39a45,45,0,0,0-2.07,4.52A2.11,2.11,0,0,1,5.78,27c-.22,0-.39-.09-.54-.12-.42.19-1.12-.44-.87-2,0-.27.09-.54.14-.81a24.22,24.22,0,0,1,3.28-8.68A24.59,24.59,0,0,1,11.32,11a24,24,0,0,1,3.49-2.93A24.67,24.67,0,0,1,24.92,4.08Z" transform="translate(1.49 18.99)"/>
              <path class="cls-148" d="M24.74,4.16a33.06,33.06,0,0,1,10.69,0c1.56.24,1.83,1.72.54,2a10.54,10.54,0,0,1-1.24.18A46.26,46.26,0,0,0,26.09,8c-1,.3-1.94.63-2.84,1a25.64,25.64,0,0,0-4.88,2.58,23.27,23.27,0,0,0-3,2.45,25,25,0,0,0-2.92,3.3A31.24,31.24,0,0,0,10,21.12,41.75,41.75,0,0,0,8,25.58a2.25,2.25,0,0,1-2.09,1.2l-.53-.05c-.43.25-1.16-.35-.9-1.85,0-.26.09-.53.14-.8A24.33,24.33,0,0,1,7.84,15.5a24.77,24.77,0,0,1,3.48-4.44,24,24,0,0,1,3.45-2.9A24.57,24.57,0,0,1,24.74,4.16Z" transform="translate(1.49 18.99)"/>
              <path class="cls-149" d="M24.56,4.24A33.26,33.26,0,0,1,35.2,4.16c1.57.23,1.83,1.67.55,2a8.37,8.37,0,0,1-1.23.19A46.32,46.32,0,0,0,26,7.92c-1,.3-1.92.62-2.81,1a25.56,25.56,0,0,0-4.82,2.54,23,23,0,0,0-3,2.41,25.18,25.18,0,0,0-2.9,3.26,29,29,0,0,0-2.37,3.74A40.51,40.51,0,0,0,8,25.25a2.35,2.35,0,0,1-2,1.27c-.21,0-.38,0-.53,0-.43.31-1.2-.25-.93-1.75,0-.26.09-.52.14-.79a24.56,24.56,0,0,1,6.68-12.87,23.53,23.53,0,0,1,3.4-2.88A24.48,24.48,0,0,1,24.56,4.24Z" transform="translate(1.49 18.99)"/>
              <path class="cls-121" d="M24.38,4.32A33.23,33.23,0,0,1,35,4.15c1.57.21,1.82,1.61.55,1.9a9.79,9.79,0,0,1-1.22.19,46.21,46.21,0,0,0-8.44,1.61c-1,.29-1.89.61-2.77,1a25.39,25.39,0,0,0-4.78,2.5,24.71,24.71,0,0,0-3,2.37,25.88,25.88,0,0,0-2.87,3.21,30.26,30.26,0,0,0-2.37,3.69,41.35,41.35,0,0,0-2,4.33,2.57,2.57,0,0,1-2,1.35l-.53.08c-.44.37-1.23-.16-1-1.65,0-.26.09-.52.14-.78A24.47,24.47,0,0,1,11.33,11.2a24.19,24.19,0,0,1,3.35-2.86A24.56,24.56,0,0,1,24.38,4.32Z" transform="translate(1.49 18.99)"/>
              <path class="cls-150" d="M24.2,4.4a33.72,33.72,0,0,1,10.55-.27c1.58.2,1.82,1.56.56,1.86a11.66,11.66,0,0,1-1.2.19,46,46,0,0,0-8.34,1.59c-1,.29-1.87.61-2.75,1a25.32,25.32,0,0,0-4.72,2.46,22.67,22.67,0,0,0-3,2.33,24.58,24.58,0,0,0-2.86,3.16,29.51,29.51,0,0,0-2.35,3.64,42.51,42.51,0,0,0-2,4.28A2.77,2.77,0,0,1,6.17,26a2.79,2.79,0,0,0-.53.16c-.45.42-1.27-.08-1-1.56l.15-.77a24.47,24.47,0,0,1,6.54-12.57,23.65,23.65,0,0,1,3.31-2.83A24.62,24.62,0,0,1,24.2,4.4Z" transform="translate(1.49 18.99)"/>
              <path class="cls-151" d="M24,4.49a33.36,33.36,0,0,1,10.51-.38c1.58.19,1.81,1.51.56,1.82a11,11,0,0,1-1.19.19A45.86,45.86,0,0,0,25.66,7.7c-.95.28-1.85.59-2.71.94a25.44,25.44,0,0,0-4.68,2.42,23.56,23.56,0,0,0-2.93,2.3,23.29,23.29,0,0,0-2.83,3.11,28.69,28.69,0,0,0-2.34,3.58,41.35,41.35,0,0,0-2,4.22,3,3,0,0,1-1.88,1.48,2.17,2.17,0,0,0-.53.23c-.52.41-1.3,0-1-1.46,0-.25.1-.51.14-.76A24.57,24.57,0,0,1,8,15.59a24.26,24.26,0,0,1,3.31-4.25,23.58,23.58,0,0,1,3.25-2.81A24.33,24.33,0,0,1,24,4.49Z" transform="translate(1.49 18.99)"/>
              <path class="cls-152" d="M23.84,4.57A33.26,33.26,0,0,1,34.3,4.1c1.59.17,1.81,1.45.56,1.76a8.43,8.43,0,0,1-1.16.2,45.93,45.93,0,0,0-8.15,1.56c-.93.28-1.82.59-2.68.93a25.72,25.72,0,0,0-4.62,2.38,23.07,23.07,0,0,0-2.91,2.26,24.06,24.06,0,0,0-2.81,3.06,28.7,28.7,0,0,0-2.32,3.53,41.25,41.25,0,0,0-2,4.16,3.36,3.36,0,0,1-1.82,1.55,2.23,2.23,0,0,0-.53.3c-.52.48-1.34.11-1-1.36,0-.25.09-.5.14-.75a24.61,24.61,0,0,1,6.42-12.27,23.79,23.79,0,0,1,3.21-2.79A24.55,24.55,0,0,1,23.84,4.57Z" transform="translate(1.49 18.99)"/>
              <path class="cls-108" d="M23.66,4.65a33.43,33.43,0,0,1,10.41-.57c1.6.16,1.81,1.4.57,1.72a8,8,0,0,1-1.15.2,45.72,45.72,0,0,0-8,1.55c-.93.27-1.81.58-2.65.91a25.56,25.56,0,0,0-4.58,2.34A22.38,22.38,0,0,0,15.35,13a22.86,22.86,0,0,0-2.79,3,26.82,26.82,0,0,0-2.31,3.47,38.14,38.14,0,0,0-2,4.1,3.81,3.81,0,0,1-1.77,1.62,2.37,2.37,0,0,0-.53.37c-.52.56-1.37.2-1.08-1.26,0-.25.09-.49.14-.74a24.57,24.57,0,0,1,3.14-8,24.3,24.3,0,0,1,3.21-4.16A23.76,23.76,0,0,1,14.5,8.72,24.52,24.52,0,0,1,23.66,4.65Z" transform="translate(1.49 18.99)"/>
              <path class="cls-153" d="M23.48,4.73a34.61,34.61,0,0,1,10.37-.66c1.6.12,1.79,1.34.57,1.67a8,8,0,0,1-1.13.2,46.58,46.58,0,0,0-7.95,1.53q-1.36.41-2.61.9a25.63,25.63,0,0,0-4.53,2.3,22.82,22.82,0,0,0-2.85,2.18,23.69,23.69,0,0,0-2.77,3,28.34,28.34,0,0,0-2.3,3.42,41.09,41.09,0,0,0-2,4A4.27,4.27,0,0,1,6.55,25a3.88,3.88,0,0,0-.52.44c-.53.63-1.41.29-1.12-1.16l.15-.73a24.77,24.77,0,0,1,3.12-7.86A23.92,23.92,0,0,1,23.48,4.73Z" transform="translate(1.49 18.99)"/>
              <path class="cls-154" d="M23.3,4.81a33.5,33.5,0,0,1,10.32-.76c1.6.12,1.79,1.28.58,1.62a7.48,7.48,0,0,1-1.12.21A45.44,45.44,0,0,0,25.24,7.4c-.91.26-1.77.56-2.59.88a25.61,25.61,0,0,0-4.47,2.26,22.57,22.57,0,0,0-2.83,2.14,23.72,23.72,0,0,0-2.74,2.92A27.28,27.28,0,0,0,10.32,19a38.88,38.88,0,0,0-2,4,5,5,0,0,1-1.67,1.76,4.2,4.2,0,0,0-.52.51c-.53.7-1.45.39-1.15-1.06l.15-.72a24.82,24.82,0,0,1,3.09-7.75,24.21,24.21,0,0,1,3.13-4.07A23.5,23.5,0,0,1,14.42,8.9,24.54,24.54,0,0,1,23.3,4.81Z" transform="translate(1.49 18.99)"/>
              <path class="cls-155" d="M23.12,4.89A33.38,33.38,0,0,1,33.39,4c1.61.1,1.79,1.22.59,1.57a7.33,7.33,0,0,1-1.11.21,46.42,46.42,0,0,0-7.74,1.5q-1.34.39-2.55.87a25.45,25.45,0,0,0-4.43,2.22,22.92,22.92,0,0,0-5.52,5,27.55,27.55,0,0,0-2.27,3.31,38,38,0,0,0-2,3.93,6.22,6.22,0,0,1-1.61,1.83,4,4,0,0,0-.52.58c-.53.75-1.48.47-1.18-1l.15-.71a24.91,24.91,0,0,1,3.07-7.65,24,24,0,0,1,3.08-4,22.76,22.76,0,0,1,3-2.69A24.46,24.46,0,0,1,23.12,4.89Z" transform="translate(1.49 18.99)"/>
              <path class="cls-122" d="M22.94,5A33.25,33.25,0,0,1,33.17,4c1.61.09,1.78,1.17.59,1.53a7,7,0,0,1-1.09.21A45.52,45.52,0,0,0,25,7.25c-.88.26-1.72.54-2.52.85a25.45,25.45,0,0,0-4.37,2.18,21.47,21.47,0,0,0-2.77,2.07,22.5,22.5,0,0,0-2.7,2.82,25.78,25.78,0,0,0-2.26,3.26,36.88,36.88,0,0,0-2,3.87,7.33,7.33,0,0,1-1.56,1.9,4.49,4.49,0,0,0-.52.65c-.53.82-1.52.56-1.21-.87l.15-.71a25.11,25.11,0,0,1,3.05-7.54,23.75,23.75,0,0,1,3-4,22.26,22.26,0,0,1,3-2.67A24.4,24.4,0,0,1,22.94,5Z" transform="translate(1.49 18.99)"/>
              <path class="cls-156" d="M22.76,5.06A32.73,32.73,0,0,1,32.94,4c1.62.07,1.78,1.11.6,1.48a6.68,6.68,0,0,1-1.08.21,46.24,46.24,0,0,0-7.54,1.47q-1.3.39-2.49.84a24.94,24.94,0,0,0-4.33,2.14,22.33,22.33,0,0,0-2.74,2A22.65,22.65,0,0,0,12.68,15a28.19,28.19,0,0,0-2.25,3.21,39.92,39.92,0,0,0-2,3.81,8.73,8.73,0,0,1-1.51,2,7.3,7.3,0,0,0-.52.72c-.53.89-1.55.65-1.24-.78.05-.22.11-.46.16-.69a25.13,25.13,0,0,1,3-7.44,24,24,0,0,1,3-3.92,23.75,23.75,0,0,1,2.92-2.65A24.55,24.55,0,0,1,22.76,5.06Z" transform="translate(1.49 18.99)"/>
              <path class="cls-157" d="M22.58,5.14A32.87,32.87,0,0,1,32.72,4c1.62,0,1.77,1.06.6,1.43a5.63,5.63,0,0,1-1.06.22A45.32,45.32,0,0,0,24.81,7.1c-.86.25-1.68.52-2.46.82A25.32,25.32,0,0,0,18.08,10a21.56,21.56,0,0,0-5.38,4.72,26.57,26.57,0,0,0-2.23,3.16,36.44,36.44,0,0,0-2,3.74,12.4,12.4,0,0,1-1.46,2c-.18.26-.36.52-.52.79-.53,1-1.59.75-1.27-.68,0-.22.1-.45.16-.68a25.09,25.09,0,0,1,3-7.33,24,24,0,0,1,2.94-3.88,23.15,23.15,0,0,1,2.88-2.62A24.43,24.43,0,0,1,22.58,5.14Z" transform="translate(1.49 18.99)"/>
              <path class="cls-158" d="M22.4,5.22A33,33,0,0,1,32.49,4c1.63,0,1.76,1,.61,1.39a5.2,5.2,0,0,1-1.05.22A46.11,46.11,0,0,0,24.71,7q-1.28.38-2.43.81a25.08,25.08,0,0,0-4.22,2.06,22,22,0,0,0-5.33,4.63,26.7,26.7,0,0,0-2.22,3.11,36.38,36.38,0,0,0-2,3.68,17.13,17.13,0,0,1-1.41,2.11c-.18.28-.36.56-.52.86-.53,1-1.62.84-1.3-.58,0-.22.1-.44.16-.67a25.29,25.29,0,0,1,3-7.23A23.81,23.81,0,0,1,11.37,12a23.24,23.24,0,0,1,2.82-2.6A24.62,24.62,0,0,1,22.4,5.22Z" transform="translate(1.49 18.99)"/>
              <path class="cls-123" d="M22.22,5.3A32.8,32.8,0,0,1,32.26,4c1.64,0,1.76.94.62,1.34a5.94,5.94,0,0,1-1,.22A45,45,0,0,0,24.6,7c-.84.24-1.63.5-2.4.79a25.21,25.21,0,0,0-4.17,2,21.73,21.73,0,0,0-2.66,1.92,22.36,22.36,0,0,0-2.62,2.62,25.94,25.94,0,0,0-2.2,3.06,35.3,35.3,0,0,0-2,3.62,25.37,25.37,0,0,1-1.35,2.18c-.18.31-.36.61-.52.93-.54,1.08-1.66.93-1.33-.48.05-.22.1-.44.16-.66a25.34,25.34,0,0,1,3-7.13A24.16,24.16,0,0,1,11.37,12a22.71,22.71,0,0,1,2.78-2.58A24.59,24.59,0,0,1,22.22,5.3Z" transform="translate(1.49 18.99)"/>
              <path class="cls-159" d="M22,5.38A32.29,32.29,0,0,1,32,3.94c1.64,0,1.75.89.62,1.29a4.83,4.83,0,0,1-1,.23,46.65,46.65,0,0,0-7.15,1.41c-.82.24-1.61.5-2.36.78a25,25,0,0,0-4.12,2,22.35,22.35,0,0,0-2.64,1.88,20.36,20.36,0,0,0-2.59,2.58,24.08,24.08,0,0,0-2.19,3,33.39,33.39,0,0,0-1.95,3.57c-.4.82-.92,1.53-1.31,2.25-.17.32-.35.65-.51,1-.54,1.14-1.7,1-1.37-.39.06-.21.11-.43.16-.65a26.15,26.15,0,0,1,3-7,24.21,24.21,0,0,1,2.81-3.74A23.55,23.55,0,0,1,14.1,9.56,24.74,24.74,0,0,1,22,5.38Z" transform="translate(1.49 18.99)"/>
              <path class="cls-160" d="M21.86,5.46a32.06,32.06,0,0,1,10-1.53c1.64,0,1.75.83.62,1.24a4.49,4.49,0,0,1-1,.23,46.35,46.35,0,0,0-7,1.4c-.82.23-1.59.49-2.33.76a24.48,24.48,0,0,0-4.08,2,20.48,20.48,0,0,0-2.6,1.83,21.26,21.26,0,0,0-2.58,2.53,26.48,26.48,0,0,0-2.18,3,35.23,35.23,0,0,0-1.94,3.51c-.39.81-.87,1.56-1.25,2.32-.18.35-.35.7-.51,1.07-.54,1.2-1.74,1.11-1.4-.29.05-.21.11-.43.16-.64a26.25,26.25,0,0,1,2.93-6.92,23.55,23.55,0,0,1,2.77-3.69,23,23,0,0,1,2.68-2.53A24.52,24.52,0,0,1,21.86,5.46Z" transform="translate(1.49 18.99)"/>
              <path class="cls-161" d="M21.68,5.54a32.16,32.16,0,0,1,9.9-1.63c1.65,0,1.75.78.63,1.2a4.29,4.29,0,0,1-1,.23,46.67,46.67,0,0,0-6.95,1.38c-.8.23-1.57.48-2.3.75a24.12,24.12,0,0,0-4,1.91,20,20,0,0,0-2.58,1.79,21.34,21.34,0,0,0-2.55,2.48,24.61,24.61,0,0,0-2.17,2.9A33.27,33.27,0,0,0,8.73,20c-.4.8-.83,1.58-1.2,2.39-.18.37-.35.75-.52,1.14-.54,1.26-1.77,1.2-1.42-.19,0-.21.11-.42.16-.63a26.37,26.37,0,0,1,2.91-6.82,24,24,0,0,1,2.72-3.64A22.46,22.46,0,0,1,14,9.74,24.72,24.72,0,0,1,21.68,5.54Z" transform="translate(1.49 18.99)"/>
              <path class="cls-6" d="M5.66,23.25a26.64,26.64,0,0,1,3.05-7.33A23.91,23.91,0,0,1,14,9.84,24.78,24.78,0,0,1,21.5,5.63,31.63,31.63,0,0,1,31.36,3.9c2-.06,1.69,1.12-.34,1.38a41.53,41.53,0,0,0-9.11,2.11A21.55,21.55,0,0,0,10.7,16.28a42.27,42.27,0,0,0-3.59,7.06C6.57,24.67,5.31,24.63,5.66,23.25Z" transform="translate(1.49 18.99)"/>
            </g>
          </g>
        </g>
      </g>
    </g>
  </g>
</svg>
